<svg width="34" height="34" viewBox="0 0 34 34" fill="none" xmlns="http://www.w3.org/2000/svg">
<circle cx="17" cy="17" r="16.5" fill="#AF862E" stroke="white"/>
<path d="M18.7786 9.62769C19.8899 9.92594 20.9032 10.5113 21.7169 11.3249C22.5305 12.1385 23.1158 13.1519 23.4141 14.2632" stroke="white" stroke-linecap="round" stroke-linejoin="round"/>
<path d="M18.0989 12.1584C18.7673 12.336 19.3769 12.687 19.8659 13.176C20.3549 13.665 20.7059 14.2746 20.8834 14.943" stroke="white" stroke-linecap="round" stroke-linejoin="round"/>
<path d="M13.2997 16.5728C13.9739 17.965 15.0997 19.088 16.4938 19.7586C16.5966 19.8073 16.7103 19.8284 16.8238 19.8198C16.9372 19.8112 17.0465 19.7732 17.1408 19.7095L19.1883 18.3418C19.2787 18.2804 19.3832 18.243 19.4921 18.233C19.6009 18.2229 19.7105 18.2406 19.8107 18.2844L23.6436 19.9306C23.7746 19.9851 23.884 20.0812 23.955 20.204C24.0261 20.3269 24.0548 20.4696 24.0367 20.6104C23.9152 21.5586 23.4524 22.43 22.7348 23.0616C22.0173 23.6932 21.0942 24.0417 20.1383 24.042C17.1842 24.042 14.3512 22.8685 12.2623 20.7796C10.1735 18.6908 9 15.8577 9 12.9037C9.00022 11.9477 9.34874 11.0246 9.98035 10.3071C10.612 9.58957 11.4834 9.12676 12.4316 9.00527C12.5723 8.9872 12.7151 9.01588 12.8379 9.08692C12.9607 9.15795 13.0568 9.26739 13.1113 9.39839L14.7575 13.2395C14.8003 13.338 14.8182 13.4456 14.8097 13.5527C14.8011 13.6598 14.7663 13.7632 14.7084 13.8537L13.3407 15.9339C13.2798 16.028 13.244 16.1362 13.2369 16.248C13.2297 16.3598 13.2513 16.4717 13.2997 16.5728V16.5728Z" stroke="white" stroke-linecap="round" stroke-linejoin="round"/>
</svg>
