<svg width="34" height="34" viewBox="0 0 34 34" fill="none" xmlns="http://www.w3.org/2000/svg">
<circle cx="17" cy="17" r="16.5" fill="#AF862E" stroke="white"/>
<path d="M10.6616 25.2H22.5693" stroke="white" stroke-linecap="round" stroke-linejoin="round"/>
<path d="M16.6154 17.2615C18.0768 17.2615 19.2615 16.0768 19.2615 14.6154C19.2615 13.154 18.0768 11.9692 16.6154 11.9692C15.154 11.9692 13.9692 13.154 13.9692 14.6154C13.9692 16.0768 15.154 17.2615 16.6154 17.2615Z" stroke="white" stroke-linecap="round" stroke-linejoin="round"/>
<path d="M23.2308 14.6154C23.2308 20.5692 16.6154 25.2 16.6154 25.2C16.6154 25.2 10 20.5692 10 14.6154C10 12.8609 10.697 11.1782 11.9376 9.9376C13.1782 8.69698 14.8609 8 16.6154 8C18.3699 8 20.0525 8.69698 21.2932 9.9376C22.5338 11.1782 23.2308 12.8609 23.2308 14.6154V14.6154Z" stroke="white" stroke-linecap="round" stroke-linejoin="round"/>
</svg>
