<svg width="27" height="32" viewBox="0 0 27 32" fill="none" xmlns="http://www.w3.org/2000/svg">
<path d="M5.50364 20.1404C7.99093 20.1404 10.0073 18.1241 10.0073 15.6368C10.0073 13.1495 7.99093 11.1332 5.50364 11.1332C3.01635 11.1332 1 13.1495 1 15.6368C1 18.1241 3.01635 20.1404 5.50364 20.1404Z" stroke="#333333" stroke-width="2" stroke-linecap="round" stroke-linejoin="round"/>
<path d="M21.2663 30.2736C23.7536 30.2736 25.77 28.2573 25.77 25.77C25.77 23.2827 23.7536 21.2663 21.2663 21.2663C18.779 21.2663 16.7627 23.2827 16.7627 25.77C16.7627 28.2573 18.779 30.2736 21.2663 30.2736Z" stroke="#333333" stroke-width="2" stroke-linecap="round" stroke-linejoin="round"/>
<path d="M21.2663 10.0073C23.7536 10.0073 25.77 7.99093 25.77 5.50364C25.77 3.01635 23.7536 1 21.2663 1C18.779 1 16.7627 3.01635 16.7627 5.50364C16.7627 7.99093 18.779 10.0073 21.2663 10.0073Z" stroke="#333333" stroke-width="2" stroke-linecap="round" stroke-linejoin="round"/>
<path d="M17.481 7.93842L9.29004 13.202" stroke="#333333" stroke-width="2" stroke-linecap="round" stroke-linejoin="round"/>
<path d="M9.29004 18.0716L17.481 23.3353" stroke="#333333" stroke-width="2" stroke-linecap="round" stroke-linejoin="round"/>
</svg>
