<svg width="312" height="324" viewBox="0 0 312 324" fill="none" xmlns="http://www.w3.org/2000/svg">
<path d="M79.5322 152.335H71.1943C67.3935 149.782 48.945 136.596 45.5047 134.373C29.9407 123.379 16.8104 144.961 39.871 143.955V152.305C3.57503 154.528 18.9287 92.3054 71.1943 143.955V123.094H79.5322V152.335ZM79.5322 190.889H71.1943C67.3935 188.335 48.945 175.149 45.5047 172.926C29.9407 161.932 16.8104 183.499 39.871 182.508V190.859C3.57503 193.066 18.9287 130.844 71.1943 182.508V161.647H79.5322V190.889ZM73.2675 216.24C73.6131 205.442 44.3479 211.479 37.7978 209.977C33.411 209.887 27.2365 210.683 27.3567 216.24C27.2365 221.797 33.411 222.578 37.7978 222.503C45.1441 220.641 71.9455 227.67 73.2675 216.24ZM80.1331 216.24C80.5237 236.876 50.4173 229.592 37.7978 230.854C27.8375 230.824 20.4611 226.618 20.5061 216.24C20.4611 205.907 27.8825 201.657 37.7978 201.642C50.4624 202.949 80.6589 195.589 80.1331 216.24ZM79.5322 270.218H71.1943C67.3935 267.65 48.945 254.478 45.5047 252.255C29.9407 241.247 16.8104 262.829 39.871 261.837V270.173C3.57503 272.396 18.9287 210.173 71.1943 261.837V240.961H79.5322V270.218Z" fill="#A27B1E"/>
<mask id="mask0_176_370" style="mask-type:alpha" maskUnits="userSpaceOnUse" x="107" y="11" width="205" height="70">
<path d="M107.686 11.5344H311.445V80.7409H107.686V11.5344Z" fill="black"/>
</mask>
<g mask="url(#mask0_176_370)">
<path d="M283.126 57.2966H290.412L286.716 32.9812L283.126 57.2966ZM262.048 80.2303L276.411 14.5832H297.052L311.415 80.2303H293.567L292.17 70.5582H281.323L279.926 80.2303H262.048ZM240.31 80.2303V14.5832H258.638V80.2303H240.31ZM189.396 14.5832C214.125 11.9699 236.749 18.3079 234.706 47.4443C236.344 77.8122 213.944 82.5281 189.396 80.2303V14.5832ZM207.725 30.3229V63.6495C219.848 65.5569 219.803 28.4606 207.725 30.3229ZM136.605 80.2303V14.5832H154.858L164.969 49.1114V14.5832H181.644V80.2303H163.572L153.371 47.3542V80.2303H136.605ZM109.984 80.2303V14.5832H128.312V80.2303H109.984Z" fill="#A27B1E"/>
</g>
<mask id="mask1_176_370" style="mask-type:alpha" maskUnits="userSpaceOnUse" x="107" y="84" width="205" height="82">
<path d="M107.686 84.5858H311.445V165.327H107.686V84.5858Z" fill="black"/>
</mask>
<g mask="url(#mask1_176_370)">
<path d="M296.647 162.218H275.825V106.844H263.536V87.995H308.936V106.844H296.647V162.218ZM210.955 162.218V87.995C221.636 88.4906 245.268 85.8473 252.959 92.6808C263.986 100.896 260.276 121.532 245.042 123.184C262.169 124.776 265.804 147.695 254.056 156.961C246.109 164.441 222.147 161.767 210.955 162.218ZM231.101 145.457C242.654 147.139 242.744 129.237 231.101 130.468V145.457ZM231.161 116.621C242.488 117.672 242.173 102.128 231.101 103.825L231.161 116.621ZM166.817 162.218V87.995H203.683V106.002H187.639V115.479H202.121V132.856H187.639V143.069H203.683V162.218H166.817ZM109.984 87.995C138.618 85.4117 162.986 91.4793 161.213 125.166C163.061 159.499 137.747 164.831 109.984 162.218V87.995ZM130.701 105.792V143.474C144.417 145.622 144.357 103.69 130.701 105.792Z" fill="#A27B1E"/>
</g>
<mask id="mask2_176_370" style="mask-type:alpha" maskUnits="userSpaceOnUse" x="107" y="169" width="205" height="51">
<path d="M107.686 169.171H311.445V219.154H107.686V169.171Z" fill="black"/>
</mask>
<g mask="url(#mask2_176_370)">
<path d="M286.386 217.141V170.839H299.381V205.652H308.861V217.141H286.386ZM264.407 200.966H269.545L266.931 183.815L264.407 200.966ZM249.534 217.141L259.675 170.839H274.232L284.358 217.141H271.768L270.777 210.323H263.13L262.154 217.141H249.534ZM244.141 217.141H231.146V182.583H223.469V170.839H251.803V182.583H244.141V217.141ZM207.229 217.141V170.839H220.164V217.141H207.229ZM172.54 217.141V170.839H186.302C210.143 168.195 208.551 205.547 185.475 201.687V217.141H172.54ZM185.475 180.706V190.964C193.302 191.88 193.062 179.64 185.475 180.706ZM150.562 200.966H155.699L153.085 183.815L150.562 200.966ZM135.689 217.141L145.829 170.839H160.387L170.512 217.141H157.923L156.931 210.323H149.3L148.308 217.141H135.689ZM135.178 216.406C100.685 229.427 100.504 158.673 135.178 171.289V182.388C118.036 172.686 118.172 214.859 135.178 204.811V216.406Z" fill="#A27B1E"/>
</g>
<mask id="mask3_176_370" style="mask-type:alpha" maskUnits="userSpaceOnUse" x="107" y="222" width="205" height="51">
<path d="M107.686 222.999H311.445V272.981H107.686V222.999Z" fill="black"/>
</mask>
<g mask="url(#mask3_176_370)">
<path d="M300.988 270.083H288.579V237.056H281.248V225.822H308.32V237.056H300.988V270.083ZM257.361 270.083V225.822H279.34V236.561H269.77V242.208H278.408V252.571H269.77V258.653H279.34V270.083H257.361ZM223.273 270.083V225.822H235.698V244.31L242.458 225.822H255.138L246.003 246.263L255.378 270.083H241.992L235.698 249.943V270.083H223.273ZM189.441 270.083V225.822C196.337 226.198 210.068 224.17 215.026 229.502C221.441 234.954 220.509 247.449 211.736 250.468L220.479 270.083H207.394L201.79 252.946V270.083H189.441ZM201.79 235.014V245.557C208.43 246.248 208.295 234.128 201.79 235.014ZM168.439 254.628H173.351L170.858 238.228L168.439 254.628ZM154.227 270.083L163.917 225.822H177.828L187.503 270.083H175.47L174.523 263.565H167.222L166.275 270.083H154.227ZM110.404 270.083L113.559 225.822H128.297L132.158 249.162L136.004 225.822H150.711L153.866 270.083H142.584L141.637 238.738L136.725 270.083H127.531L122.618 238.738L121.657 270.083H110.404Z" fill="#A27B1E"/>
</g>
<mask id="mask4_176_370" style="mask-type:alpha" maskUnits="userSpaceOnUse" x="107" y="276" width="205" height="48">
<path d="M107.686 276.826H311.445V324H107.686V276.826Z" fill="black"/>
</mask>
<g mask="url(#mask4_176_370)">
<path d="M300.778 322.979H288.354V289.952H281.038V278.718H308.095V289.952H300.778V322.979ZM265.504 322.979V278.718H277.868V322.979H265.504ZM218.091 322.979L221.246 278.718H235.968L239.829 302.058L243.69 278.718H258.398L261.553 322.979H250.271L249.324 291.635L244.411 322.979H235.217L230.305 291.635L229.328 322.979H218.091ZM172.526 322.979L175.68 278.718H190.418L194.279 302.058L198.125 278.718H212.833L215.988 322.979H204.705L203.759 291.635L198.846 322.979H189.667L184.739 291.635L183.778 322.979H172.526ZM138.814 307.149V278.718H151.163C152.38 281.587 148.143 312.976 154.002 312.105C159.891 313.111 155.67 281.437 156.871 278.718H169.296C168.364 287.144 172.06 313.757 165.615 319.825C155.835 328.536 136.545 323.294 138.814 307.149ZM110.63 308.26C113.965 311.039 121.537 315.74 122.784 309.447C122.198 305.947 112.748 299.114 112.313 296.786C105.057 282.789 122.664 272.876 134.337 280.401V291.875C131.467 289.472 124.617 285.657 123.535 291.004C124.241 294.653 133.706 300.06 134.262 302.763C142.059 317.632 123.174 330.278 110.63 320.486V308.26Z" fill="#A27B1E"/>
</g>
<mask id="mask5_176_370" style="mask-type:alpha" maskUnits="userSpaceOnUse" x="30" y="0" width="282" height="8">
<path d="M30.7671 0H311.445V7.68961H30.7671V0Z" fill="black"/>
</mask>
<g mask="url(#mask5_176_370)">
<path fill-rule="evenodd" clip-rule="evenodd" d="M42.1694 4.11521H310.483L310.228 0.49569C303.077 2.16277 27.642 -3.36413 31.3227 3.79982L42.1694 4.11521Z" fill="#A27B1E"/>
</g>
<mask id="mask6_176_370" style="mask-type:alpha" maskUnits="userSpaceOnUse" x="215" y="0" width="97" height="8">
<path d="M215.372 0H311.445V7.68961H215.372V0Z" fill="black"/>
</mask>
<g mask="url(#mask6_176_370)">
<path fill-rule="evenodd" clip-rule="evenodd" d="M311.429 4.11513H217.82L218.886 0.495605H311.279L311.429 4.11513Z" fill="#A27B1E"/>
</g>
<path fill-rule="evenodd" clip-rule="evenodd" d="M67.4984 14.6133C67.4984 14.6133 106.288 23.4894 93.9843 64.5507C97.0189 62.388 92.7524 19.149 61.9248 15.9049L67.4984 14.6133Z" fill="#A27B1E"/>
<path fill-rule="evenodd" clip-rule="evenodd" d="M37.0315 12.7809C7.55601 21.1613 -0.676692 74.3428 40.0211 86.2527C42.5149 89.1513 77.1584 87.7396 81.0944 65.2114C93.8942 24.7508 27.0561 7.13381 28.4082 53.3015C28.4382 69.3566 59.2357 83.4442 67.4083 59.0537C71.0289 45.702 57.5081 33.5218 45.2191 40.9711C34.5226 45.0262 42.4398 71.309 56.2912 57.4167C51.003 60.856 45.3693 58.8284 44.1825 53.1814C42.3196 40.055 64.614 37.8772 63.322 57.3115C65.0797 69.4467 33.5311 76.7008 32.5696 48.2101C32.5696 48.2101 32.855 35.7295 46.8867 32.11C85.6465 21.702 89.8379 97.0812 34.5677 77.2565C18.0722 71.9699 6.72973 22.7383 45.5947 16.4304C45.5947 16.4304 72.9369 10.468 87.2539 30.6532C87.2539 30.6532 85.4962 27.4993 81.44 23.6845C113.905 55.1939 83.3629 101.437 49.02 96.886C-9.42018 96.105 -11.3431 1.00615 53.0913 3.60439C-14.8285 -9.83741 -18.5843 100.37 47.6228 101.542C117.36 104.681 111.366 -8.99636 37.0315 12.7809Z" fill="#A27B1E"/>
</svg>
