<svg width="83" height="45" viewBox="0 0 83 45" fill="none" xmlns="http://www.w3.org/2000/svg">
<path fill-rule="evenodd" clip-rule="evenodd" d="M6.39148 12.1834H6.0918V11.5071H6.39148V12.1834Z" fill="#AF862E"/>
<path fill-rule="evenodd" clip-rule="evenodd" d="M4.06445 2.76608H13.4818L13.3784 2.60431H4.08037L4.06445 2.76608Z" fill="#AF862E"/>
<path fill-rule="evenodd" clip-rule="evenodd" d="M13.2772 8.52897H9.09766V8.13647H13.2772V8.52897Z" fill="#AF862E"/>
<path fill-rule="evenodd" clip-rule="evenodd" d="M10.3249 12.2364H5.74219L5.84031 12.0984H10.301L10.3249 12.2364Z" fill="#AF862E"/>
<path fill-rule="evenodd" clip-rule="evenodd" d="M15.5854 12.2364H10.8145L10.9205 12.0984H15.5854V12.2364Z" fill="#AF862E"/>
<path fill-rule="evenodd" clip-rule="evenodd" d="M10.3006 8.53436C10.3006 8.53436 10.2317 9.99033 9.51562 10.1388H11.1599C11.1599 10.1388 10.5446 9.91342 10.4067 8.53436H10.3006Z" fill="#AF862E"/>
<path fill-rule="evenodd" clip-rule="evenodd" d="M12.2583 8.52094C12.2583 8.52094 12.1495 9.5844 11.7014 9.8549H11.6324C11.1842 9.5844 11.0781 8.52094 11.0781 8.52094H12.2583Z" fill="#AF862E"/>
<path fill-rule="evenodd" clip-rule="evenodd" d="M9.6626 8.52094C9.6626 8.52094 9.55387 9.5844 9.10567 9.8549H9.03937C8.50366 9.717 9.04203 8.55011 9.0102 8.52094H9.6626Z" fill="#AF862E"/>
<path fill-rule="evenodd" clip-rule="evenodd" d="M6.5281 13.4538C5.99769 13.6951 6.40611 14.2308 6.90734 14.6446H13.2377V14.1858C12.6649 13.9312 6.06665 14.8647 6.5281 13.4538Z" fill="#AF862E"/>
<path fill-rule="evenodd" clip-rule="evenodd" d="M5.5 44.4533L6.90557 14.6445L7.67201 14.618L5.74664 44.4135L5.5 44.4533Z" fill="#AF862E"/>
<path fill-rule="evenodd" clip-rule="evenodd" d="M19.752 12.1834H20.049V11.5071H19.752V12.1834Z" fill="#AF862E"/>
<path fill-rule="evenodd" clip-rule="evenodd" d="M22.0796 2.76608H13.2324L13.3359 2.60431H22.0663L22.0796 2.76608Z" fill="#AF862E"/>
<path fill-rule="evenodd" clip-rule="evenodd" d="M12.8652 8.52897H17.0475V8.13647H12.8652V8.52897Z" fill="#AF862E"/>
<path fill-rule="evenodd" clip-rule="evenodd" d="M16.1289 12.2364H20.404L20.3112 12.0984H16.1289V12.2364Z" fill="#AF862E"/>
<path fill-rule="evenodd" clip-rule="evenodd" d="M15.8443 8.53436C15.8443 8.53436 15.9106 9.99033 16.6293 10.1388H14.9453C14.9453 10.1388 15.6004 9.91342 15.7356 8.53436H15.8443Z" fill="#AF862E"/>
<path fill-rule="evenodd" clip-rule="evenodd" d="M13.0131 8.54497C13.0131 8.54497 12.9574 9.8206 12.1777 10.2211H13.9519C13.9519 10.2211 13.2067 9.91342 13.0715 8.53436L13.0131 8.54497Z" fill="#AF862E"/>
<path fill-rule="evenodd" clip-rule="evenodd" d="M13.834 8.52094C13.834 8.52094 13.9401 9.5844 14.3883 9.8549H14.4572C14.9054 9.5844 15.0115 8.52094 15.0115 8.52094H13.834Z" fill="#AF862E"/>
<path fill-rule="evenodd" clip-rule="evenodd" d="M16.5098 8.52094C16.5098 8.52094 16.6185 9.5844 17.064 9.8549H17.133C17.666 9.717 17.1303 8.55011 17.1622 8.52094H16.5098Z" fill="#AF862E"/>
<path fill-rule="evenodd" clip-rule="evenodd" d="M20.6456 44.4533L19.24 14.6445L18.5664 14.618L20.2796 44.2756L20.6456 44.4533Z" fill="#AF862E"/>
<path fill-rule="evenodd" clip-rule="evenodd" d="M6.45744 3.80829C6.45744 3.80829 10.1225 4.64633 8.96095 8.52889C9.2792 8.4069 8.78592 4.16896 5.92969 3.93028L6.45744 3.80829Z" fill="#AF862E"/>
<path fill-rule="evenodd" clip-rule="evenodd" d="M19.6607 3.80829C19.6607 3.80829 15.9956 4.64633 17.1572 8.52889C17.1572 8.52889 16.1282 5.30934 20.0267 3.84807L19.6607 3.80829Z" fill="#AF862E"/>
<path fill-rule="evenodd" clip-rule="evenodd" d="M10.8489 11.2631C10.9179 10.9741 11.1327 10.7699 11.4005 10.6797H7.74338C7.20236 11.1411 6.23438 11.5204 6.23438 11.5204V12.1834L10.3132 12.1781C10.3291 11.9977 9.91804 12.011 9.926 12.0137C8.33478 12.0773 9.48311 10.868 10.2628 11.8201V11.4992C10.0931 11.348 9.85174 11.2923 9.85174 11.2923C8.17301 11.0881 9.85439 10.0883 10.2628 11.234C10.1222 10.5763 11.016 10.6187 10.8489 11.2631Z" fill="#AF862E"/>
<path fill-rule="evenodd" clip-rule="evenodd" d="M18.4237 10.6797H17.1455C17.7793 11.2446 16.4771 11.0987 16.143 11.4753V11.8545C17.0898 10.8388 18.2434 12.0826 16.143 12.072C16.1377 12.1091 16.1854 12.1675 16.1563 12.1966L19.9327 12.1834V11.5204C19.9327 11.5204 18.9647 11.1411 18.4237 10.6797Z" fill="#AF862E"/>
<path fill-rule="evenodd" clip-rule="evenodd" d="M16.1442 11.2631C16.2131 10.9741 16.4253 10.7699 16.6932 10.6797C15.6986 10.6797 12.8026 10.6797 11.8559 10.6797C12.487 11.2446 11.1849 11.0987 10.8507 11.4753V11.8545C11.8002 10.8388 12.9485 12.0826 10.8507 12.072C10.8481 12.1091 10.8507 12.2152 10.8242 12.2444L13.0864 12.2073L13.2429 12.2258L13.2455 12.1675L15.5766 12.1595C15.5448 12.1277 15.5581 12.1038 15.5581 12.064C13.577 12.1118 14.5397 10.8574 15.5581 11.8201V11.4992C15.3884 11.348 15.147 11.2923 15.147 11.2923C13.4683 11.0854 15.1497 10.0883 15.5581 11.234C15.4149 10.5763 16.3086 10.6187 16.1442 11.2631Z" fill="#AF862E"/>
<path fill-rule="evenodd" clip-rule="evenodd" d="M15.316 7.28514C14.5602 7.24006 14.6132 6.82369 15.0375 6.70435C16.0506 6.30389 17.3554 5.14231 17.3554 5.14231C16.4378 6.46832 16.3052 7.14724 15.316 7.28514ZM13.3933 5.55602C13.2978 5.04949 14.0934 4.74981 14.3507 5.03888C13.8176 5.20861 14.1624 5.45259 14.1624 5.45259C14.5469 5.76553 16.6765 4.42361 16.6765 4.42361C18.151 3.52987 19.2145 3.80569 19.2145 3.80569C16.764 4.12658 14.4753 8.10727 13.3933 5.55602ZM15.5759 3.97807C16.1063 4.96462 14.4196 4.43422 13.982 4.60925C13.982 4.60925 14.8439 3.37871 15.5759 3.97807ZM12.7462 5.55602C11.6588 8.10727 9.38076 4.12658 6.92498 3.80569C6.92498 3.80569 7.98844 3.52987 9.46297 4.42361C9.46297 4.42361 11.5925 5.76553 11.9771 5.45259C11.9771 5.45259 12.3219 5.20861 11.7888 5.03888C12.046 4.74981 12.8416 5.04949 12.7462 5.55602ZM10.8235 7.28514C9.83425 7.14724 9.70165 6.46832 8.78405 5.14231C8.78405 5.14231 10.1525 6.35959 11.1762 6.73352C11.5289 6.86082 11.5369 7.24802 10.8235 7.28514ZM10.4416 4.2141C10.8182 3.13472 12.2317 4.5509 12.1574 4.60925C11.6774 4.38117 10.5795 4.98584 10.4416 4.2141ZM21.6225 2.50354L21.1213 2.76874C27.2103 2.5221 27.03 11.5151 21.5058 11.5867C18.3473 11.9182 15.5785 8.11788 18.1775 4.85058C17.1353 6.09969 17.0478 6.58501 16.9841 7.15254L16.9815 7.13133H16.9629C17.0531 5.82388 17.9388 4.92749 18.8193 4.352C18.1696 4.83732 17.8938 5.3253 17.8938 5.3253C22.6091 0.891108 26.6932 7.39918 22.8716 9.73031C17.4244 11.5549 18.265 4.37587 21.71 5.4632C24.2772 6.27207 22.5799 8.78354 21.8559 8.81271C19.2834 9.24234 20.1825 6.49219 20.8985 6.53992C22.3306 6.13416 22.2696 8.65624 20.8189 7.85533C22.4871 9.29273 22.9406 5.983 21.2459 6.09969C19.6441 5.89018 19.233 8.33004 20.4424 8.99305C24.7811 10.2872 24.1022 3.99133 20.5431 4.94075C16.0188 6.53727 19.2914 11.775 22.3598 10.5816C26.2026 9.4545 25.4255 4.42626 22.6409 3.63596C20.8004 3.07903 15.7138 3.47683 13.8919 3.3628C14.5151 3.75264 13.1678 4.70472 13.0724 5.28286C12.9583 4.71268 11.6191 3.7553 12.2396 3.3628C10.3779 3.48479 5.45311 3.08168 3.57812 3.63596C0.793498 4.42626 0.0138017 9.4545 3.86189 10.5816C6.93294 11.7724 10.1976 6.53462 5.67588 4.94075C2.11421 3.99133 1.43794 10.2872 5.77665 8.9957C6.98598 8.33004 6.57491 5.89018 4.97044 6.09969C3.27845 5.98565 3.73194 9.29273 5.39741 7.85533C3.94941 8.65624 3.88841 6.13416 5.32051 6.53992C6.0339 6.49219 6.93559 9.24234 4.36047 8.81271C3.64177 8.78089 1.94448 6.27207 4.50899 5.4632C7.95397 4.37852 8.79201 11.5549 3.3474 9.73031C-0.476823 7.39388 3.6126 0.89376 8.32525 5.3253C8.32525 5.3253 8.15817 5.02562 7.77628 4.66494C10.8447 7.64582 7.95927 12.0164 4.71319 11.5867C-0.810977 11.5125 -0.993968 2.5221 5.09508 2.76874C2.17786 1.78749 -0.203664 4.97788 0.0138021 7.38062C-0.0127179 12.9074 8.98826 13.9656 9.25081 7.66969H12.664C11.94 7.36205 12.2609 6.82899 12.5367 6.75474C12.8761 6.5691 13.0512 5.73901 13.0512 5.73901C13.0512 5.73901 13.2103 6.5691 13.5497 6.75474C13.8282 6.82899 14.1464 7.36205 13.4224 7.66969H16.9682C17.0106 10.6718 19.4638 12.0959 21.6384 12.027C27.4198 11.8917 27.8733 2.63349 21.6225 2.50354Z" fill="#AF862E"/>
<path fill-rule="evenodd" clip-rule="evenodd" d="M8.91305 16.6732C9.05892 15.7848 9.61054 15.6549 10.1595 15.9599C10.0163 14.9919 8.48873 15.0476 8.54707 16.1031L7.56848 43.8273C7.56848 44.1933 7.53135 44.7609 7.57113 44.7211C8.20762 44.9226 8.69028 16.8058 8.91305 16.6732Z" fill="#AF862E"/>
<path fill-rule="evenodd" clip-rule="evenodd" d="M10.8951 44.6601C10.8792 44.5885 11.4786 16.7025 11.4786 16.7025C11.4759 16.0686 12.2238 15.6072 12.7224 15.9891C9.47363 10.2474 11.0224 41.186 10.5742 44.2676L10.8951 44.6601Z" fill="#AF862E"/>
<path fill-rule="evenodd" clip-rule="evenodd" d="M14.466 44.5913C15.1104 44.2094 12.766 13.8092 15.4313 15.96C11.9439 9.69857 14.7153 45.2357 14.0364 44.4189L14.466 44.5913Z" fill="#AF862E"/>
<path fill-rule="evenodd" clip-rule="evenodd" d="M18.2088 44.8219C18.8241 44.3896 15.4136 13.3477 18.1902 15.9599C14.5968 9.81251 18.6358 45.6069 17.9357 44.7742L18.2088 44.8219Z" fill="#AF862E"/>
<path fill-rule="evenodd" clip-rule="evenodd" d="M22.5902 1.46922C17.8112 1.46922 8.36207 1.46922 3.56986 1.46922V0.334155C8.35677 0.334155 17.8218 0.334155 22.5902 0.334155V1.46922ZM23.0278 0.00530409V0C18.042 0 8.11808 0 3.11636 0V0.00530409H3.0978V1.46922H3.08984L3.0978 1.47453V1.47983H3.1031L3.87219 2.10836C3.75285 2.26218 3.64942 2.54329 4.25408 2.71302C4.25408 2.71302 4.21961 2.66529 4.19309 2.59633C4.37873 2.93579 21.6142 2.60694 21.8901 2.71037V2.71302C22.3489 2.6149 22.4099 2.31787 22.195 2.16936L23.041 1.47983H23.0622V0.00530409H23.0278Z" fill="#AF862E"/>
<path fill-rule="evenodd" clip-rule="evenodd" d="M20.754 12.3901C20.4861 12.0188 20.1201 12.1143 20.1201 12.1143C20.0087 12.0613 20.0247 12.2098 20.0247 12.2098C22.1622 13.5491 13.2912 12.8065 13.2169 12.9815C13.1135 12.7959 3.96398 13.5676 6.12273 12.2098C6.12273 12.2098 6.13864 12.0613 6.02726 12.1143C5.23695 11.9048 4.73837 13.565 6.53114 13.5066C5.13618 14.9785 12.9597 14.0158 13.1533 14.2731V14.6443H19.2397C19.5791 14.3738 20.1705 13.7161 19.6958 13.5066C21.0059 13.5862 20.8866 12.4166 20.754 12.3901Z" fill="#AF862E"/>
<path fill-rule="evenodd" clip-rule="evenodd" d="M17.9345 12.2364H8.61523V10.6797H17.9345V12.2364Z" fill="#AF862E"/>
<path fill-rule="evenodd" clip-rule="evenodd" d="M28.2456 37.566V29.0901C27.0628 29.0291 26.543 29.1219 26.5642 30.4187H25.4609L25.5325 27.7084H33.2022L33.2738 30.4187H32.1414C32.2979 29.228 31.7038 28.9946 30.4892 29.0901V37.566H28.2456Z" fill="#AF862E"/>
<path fill-rule="evenodd" clip-rule="evenodd" d="M37.7764 31.9729C40.7891 32.0047 39.5347 28.3714 37.4343 29.167C37.3574 29.3129 37.3919 31.6255 37.3839 31.9729H37.7764ZM40.028 37.566L37.6279 33.3546H37.3839V37.566H35.143C35.1058 36.9905 35.2358 29.2917 35.0634 28.9708C35.1085 28.939 34.2492 28.7401 33.8594 28.6976V27.7084H37.5616C42.3167 27.5467 43.1627 31.6122 39.8821 32.9913L42.4334 37.566H40.028Z" fill="#AF862E"/>
<path fill-rule="evenodd" clip-rule="evenodd" d="M46.9304 37.7171C41.9658 38.0964 43.6472 32.0842 43.2282 29.1113C43.2892 29.0874 42.361 28.8991 41.9473 28.8647V27.5731L45.5461 27.5546C45.9067 29.1909 44.4243 36.7332 47.1002 36.3354C48.7974 36.1736 48.7126 35.6883 48.8028 33.7868V27.5546H50.5239C50.0916 30.7211 52.2636 38.0937 46.9304 37.7171Z" fill="#AF862E"/>
<path fill-rule="evenodd" clip-rule="evenodd" d="M54.3088 37.7171C53.6591 37.7277 52.5585 37.5367 51.5613 37.2795V35.2348C56.0008 38.1626 57.6742 34.4471 52.7653 32.6385C48.9517 29.2836 53.8261 26.4619 57.3984 27.8648V29.7769C52.8635 27.4113 52.5373 30.7661 56.746 32.2778C59.5598 34.2588 57.5575 38.1096 54.3088 37.7171Z" fill="#AF862E"/>
<path fill-rule="evenodd" clip-rule="evenodd" d="M61.6447 37.566V29.0901C60.4619 29.0291 59.9421 29.1193 59.9607 30.4187H58.8574L58.9317 27.7084H66.6013L66.6729 30.4187H65.5405C65.697 29.2253 65.1003 28.9946 63.8857 29.0901V37.566H61.6447Z" fill="#AF862E"/>
<mask id="mask0_1838_2644" style="mask-type:alpha" maskUnits="userSpaceOnUse" x="25" y="40" width="58" height="5">
<path d="M25.457 40.2263H82.6824V45H25.457V40.2263Z" fill="black"/>
</mask>
<g mask="url(#mask0_1838_2644)">
<path fill-rule="evenodd" clip-rule="evenodd" d="M82.3317 44.0291C81.8623 44.0397 81.8623 43.3078 82.3317 43.3184C82.8037 43.3078 82.8011 44.0397 82.3317 44.0291ZM81.5812 43.7878V43.9867C80.0536 44.472 80.4647 42.7031 80.4196 41.8359H80.0271V41.6343H80.4196V41.2365L80.9235 40.7883V41.6343H81.5812V41.8359H80.9235C81.0454 42.353 80.5071 44.1272 81.5812 43.7878ZM79.5418 41.6635V42.0401C78.1097 41.2763 78.6295 42.5811 79.4065 42.7721C80.2976 43.6366 78.9848 44.3182 78.1415 43.9363V43.5465C78.6692 44.0822 79.7619 43.6737 78.953 43.0877C77.5925 42.6262 78.1866 41.1543 79.5418 41.6635ZM76.9852 43.9734V43.4032H76.9746C76.6086 44.4455 75.3356 44.0822 75.5213 43.0028C75.4629 42.6527 75.7334 41.7802 75.1341 41.8412V41.7404L76.0252 41.5786V43.093C76.0252 44.1564 77.086 43.5783 76.9746 42.841C76.9348 42.5016 77.1443 41.7935 76.598 41.8412V41.7404L77.4891 41.5786V43.9734H76.9852ZM73.6251 43.9734C73.4925 43.5942 73.9778 41.7404 73.2273 41.8412V41.7404L74.1263 41.5786V42.2417H74.1369C74.3146 41.6609 74.5878 41.507 75.0386 41.6025V42.0825C73.8638 41.6662 74.1581 43.3343 74.1263 43.9734H73.6251ZM71.6281 43.9734V40.8228C71.2064 40.8175 70.7317 40.7645 70.737 41.3161H70.5965L70.615 40.5868H73.1928L73.2114 41.3161H73.0708C73.1132 40.7645 72.5855 40.8175 72.1797 40.8228V43.9734H71.6281ZM66.6715 43.9734C66.5044 43.5889 67.0852 40.5576 66.279 40.677V40.5762L67.1754 40.4515V42.2284H67.186C68.5783 40.2659 68.7878 42.9073 68.6393 43.9734H68.1354C68.4855 41.1119 66.9446 41.3188 67.1754 43.9734H66.6715ZM66.21 43.7878V43.9867C64.6798 44.472 65.0909 42.7031 65.0458 41.8359H64.6533V41.6343H65.0458V41.2365L65.5497 40.7883V41.6343H66.21V41.8359H65.5497C65.6717 42.353 65.1359 44.1272 66.21 43.7878ZM63.8656 41.1808C63.4599 41.1861 63.4599 40.5417 63.8709 40.5523C64.2926 40.5444 64.2846 41.1915 63.8656 41.1808ZM63.6084 43.9734C63.4811 43.5995 63.9584 41.7484 63.2212 41.8412V41.7404L64.1123 41.5786V43.9734H63.6084ZM59.6807 43.9734C59.3917 43.4748 59.3439 40.6213 58.4741 40.6982V40.5868H59.3837L60.0467 43.329H60.0573L60.8529 40.5868H61.2003L62.1047 43.329H62.1126L62.6669 40.5868H62.9958L62.285 43.9734H61.8077L60.9351 41.2896H60.9219L60.1475 43.9734H59.6807ZM56.5169 44.0291C56.0475 44.0397 56.0475 43.3078 56.5169 43.3184C56.9863 43.3051 56.9863 44.0397 56.5169 44.0291ZM53.6129 44.9998C53.4485 44.6205 54.024 41.7086 53.2204 41.8412V41.7404L54.1168 41.5786V41.9871H54.1274C56.1774 40.0219 56.0501 45.6044 54.1274 43.6605H54.1168V44.9998H53.6129ZM54.1168 42.7535C54.0796 43.2388 54.2069 43.801 54.6207 43.756C55.8989 43.5305 54.4032 40.2261 54.1168 42.7535ZM52.4884 41.1808C52.0827 41.1861 52.0827 40.5417 52.4937 40.5523C52.9154 40.5444 52.9048 41.1915 52.4884 41.1808ZM52.2312 43.9734C52.1012 43.5995 52.5813 41.7484 51.844 41.8412V41.7404L52.7351 41.5786V43.9734H52.2312ZM49.4174 43.9734C49.2503 43.5889 49.8338 40.5576 49.0249 40.677V40.5762L49.9213 40.4515V42.2284H49.9319C51.3242 40.2659 51.5337 42.9073 51.3852 43.9734H50.8813C51.2314 41.1119 49.6932 41.3188 49.9213 43.9734H49.4174ZM48.6854 41.6635V42.0401C47.2533 41.2763 47.7731 42.5811 48.5502 42.7721C49.4413 43.6366 48.1285 44.3182 47.2878 43.9363V43.5465C47.8129 44.0822 48.9055 43.6737 48.0967 43.0877C46.7362 42.6262 47.3302 41.1543 48.6854 41.6635ZM45.564 43.9734C45.434 43.5942 45.9194 41.7404 45.1688 41.8412V41.7404L46.0679 41.5786V42.2417H46.0785C46.2535 41.6609 46.5293 41.507 46.9775 41.6025V42.0825C45.8053 41.6662 46.0997 43.3343 46.0679 43.9734H45.564ZM43.5644 42.3371H44.4952C44.5562 41.4885 43.5193 41.6423 43.5644 42.3371ZM44.9514 43.6711V43.8912C41.1775 44.8406 43.8561 39.229 44.9965 42.5387H43.5644C43.5034 43.3555 44.177 44.0238 44.9514 43.6711ZM40.4695 43.9734C40.3368 43.5942 40.8275 41.7378 40.0663 41.8412V41.7404L40.9733 41.5786V42.2231H40.9839C42.4213 40.2845 42.5619 42.8967 42.432 43.9734H41.9281C42.2649 41.0695 40.7532 41.3585 40.9733 43.9734H40.4695ZM39.9258 43.7878V43.9867C38.3982 44.472 38.8093 42.7031 38.7642 41.8359H38.3717V41.6343H38.7642V41.2365L39.2681 40.7883V41.6343H39.9258V41.8359H39.2681C39.3901 42.353 38.8517 44.1272 39.9258 43.7878ZM36.8017 43.9734C36.6718 43.5942 37.1571 41.7404 36.4039 41.8412V41.7404L37.3056 41.5786V42.2417H37.3162C37.4912 41.6609 37.767 41.507 38.2152 41.6025V42.0825C37.0404 41.6662 37.3348 43.3343 37.3056 43.9734H36.8017ZM35.5314 43.1486V42.8569C33.9243 42.8251 35.3325 44.655 35.5314 43.1486ZM35.5314 43.9734V43.6764C34.3088 44.9122 33.4151 42.4777 35.5314 42.6739C35.7303 41.9632 34.9957 41.1968 34.8604 42.2629H34.2637C34.269 41.5627 35.4943 41.3559 35.8894 41.8253C36.1493 42.1276 35.9928 43.5703 36.0326 43.9734H35.5314ZM31.8079 43.9734C31.6356 43.4748 32.2641 40.5656 31.3226 40.6982V40.5868C31.8398 40.6425 33.2559 40.4171 33.6405 40.8308C34.4255 41.7802 33.5079 42.6898 32.3596 42.4697V43.9734H31.8079ZM32.3596 41.1252V42.231C34.1841 42.4989 33.1048 39.8707 32.3596 41.1252ZM27.4162 43.9734C27.2836 43.5942 27.7716 41.7378 27.0131 41.8412V41.7404L27.9174 41.5786V42.2231H27.928C29.3654 40.2845 29.5086 42.8967 29.376 43.9734H28.8748C29.2116 41.0695 27.6999 41.3585 27.9174 43.9734H27.4162ZM25.9629 43.9734C25.7878 43.4961 26.4296 40.5735 25.459 40.7592V40.6478L26.5145 40.5311V43.9734H25.9629Z" fill="#AF862E"/>
</g>
</svg>
