<svg width="20" height="62" viewBox="0 0 20 62" fill="none" xmlns="http://www.w3.org/2000/svg">
<path d="M15.091 37.6017C15.091 38.2084 14.987 38.7544 14.779 39.2397C14.5623 39.725 14.259 40.1064 13.869 40.3837C13.479 40.661 13.024 40.7997 12.504 40.7997L12.504 39.2137C12.894 39.179 13.2147 39.0274 13.466 38.7587C13.7173 38.4814 13.843 38.0957 13.843 37.6017C13.843 37.0904 13.7217 36.6917 13.479 36.4057C13.2277 36.1197 12.907 35.9767 12.517 35.9767C12.2137 35.9767 11.9667 36.0677 11.776 36.2497C11.5853 36.423 11.438 36.644 11.334 36.9127C11.23 37.1727 11.1173 37.5367 10.996 38.0047C10.84 38.594 10.684 39.075 10.528 39.4477C10.3633 39.8117 10.112 40.1237 9.774 40.3837C9.436 40.6437 8.98533 40.7737 8.422 40.7737C7.902 40.7737 7.447 40.6437 7.057 40.3837C6.667 40.1237 6.368 39.7597 6.16 39.2917C5.952 38.8237 5.848 38.282 5.848 37.6667C5.848 36.7914 6.069 36.0764 6.511 35.5217C6.94433 34.9584 7.54233 34.6464 8.305 34.5857L8.305 36.2237C7.97567 36.2497 7.694 36.4057 7.46 36.6917C7.226 36.9777 7.109 37.3547 7.109 37.8227C7.109 38.2474 7.21733 38.594 7.434 38.8627C7.65067 39.1314 7.96267 39.2657 8.37 39.2657C8.64733 39.2657 8.877 39.1834 9.059 39.0187C9.23233 38.8454 9.371 38.6287 9.475 38.3687C9.579 38.1087 9.69167 37.7534 9.813 37.3027C9.97767 36.7047 10.1423 36.2194 10.307 35.8467C10.4717 35.4654 10.7273 35.1447 11.074 34.8847C11.412 34.616 11.867 34.4817 12.439 34.4817C12.8983 34.4817 13.3317 34.6074 13.739 34.8587C14.1463 35.1014 14.4757 35.461 14.727 35.9377C14.9697 36.4057 15.091 36.9604 15.091 37.6017ZM5.965 25.518L15 25.518L15 27H11.048L11.048 31.251H15V32.733L5.965 32.733L5.965 31.251L9.839 31.251L9.839 27L5.965 27L5.965 25.518ZM13.154 18.12V21.903L15 22.553V24.1L5.952 20.863V19.147L15 15.91V17.47L13.154 18.12ZM11.945 18.536L7.746 20.005L11.945 21.487V18.536ZM15 9.80954L11.386 11.8895V13.0205L15 13.0205L15 14.5025L5.965 14.5025L5.965 11.3825C5.965 10.6892 6.08633 10.1042 6.329 9.62754C6.57167 9.14221 6.89667 8.78254 7.304 8.54854C7.71133 8.30587 8.16633 8.18454 8.669 8.18454C9.25833 8.18454 9.79567 8.35787 10.281 8.70454C10.7577 9.04254 11.0827 9.56687 11.256 10.2775L15 8.04154L15 9.80954ZM10.203 13.0205V11.3825C10.203 10.8279 10.0643 10.4119 9.787 10.1345C9.50967 9.84854 9.137 9.70554 8.669 9.70554C8.201 9.70554 7.837 9.84421 7.577 10.1215C7.30833 10.3989 7.174 10.8192 7.174 11.3825L7.174 13.0205H10.203ZM7.161 4.80667L9.813 4.80667V1.68667H11.022V4.80667H13.791V1.29667H15L15 6.28867L5.952 6.28867L5.952 1.29667H7.161L7.161 4.80667Z" fill="#BDBDBD"/>
<path d="M10.0588 48L10.0588 61" stroke="#BDBDBD" stroke-linecap="round" stroke-linejoin="round"/>
<path d="M7 57.9412L10.0588 61L13.1176 57.9412" stroke="#BDBDBD" stroke-linecap="round" stroke-linejoin="round"/>
</svg>
