<svg width="26" height="26" viewBox="0 0 26 26" fill="none" xmlns="http://www.w3.org/2000/svg">
<path d="M0 13C0 5.8203 5.8203 0 13 0C20.1797 0 26 5.8203 26 13C26 20.1797 20.1797 26 13 26C5.8203 26 0 20.1797 0 13Z" fill="#BDBDBD"/>
<path d="M12.6107 10.5666L12.6379 11.0164L12.1833 10.9613C10.5283 10.7502 9.08248 10.0341 7.85489 8.83149L7.25474 8.23478L7.10015 8.67543C6.7728 9.65771 6.98194 10.6951 7.66393 11.3928C8.02766 11.7783 7.94582 11.8334 7.31839 11.6039C7.10015 11.5305 6.9092 11.4754 6.89101 11.5029C6.82736 11.5672 7.04559 12.4026 7.21837 12.7331C7.45479 13.1921 7.93673 13.6419 8.46414 13.9081L8.90971 14.1193L8.3823 14.1285C7.87308 14.1285 7.85489 14.1376 7.90945 14.3304C8.09132 14.9271 8.80968 15.5606 9.60989 15.836L10.1737 16.0288L9.68263 16.3225C8.95517 16.7448 8.10041 16.9835 7.24565 17.0019C6.83645 17.011 6.5 17.0478 6.5 17.0753C6.5 17.1671 7.60937 17.6812 8.25499 17.8832C10.1919 18.4799 12.4924 18.2228 14.2202 17.2038C15.4477 16.4786 16.6753 15.0373 17.2482 13.6419C17.5574 12.8983 17.8665 11.5397 17.8665 10.8879C17.8665 10.4656 17.8938 10.4105 18.403 9.90558C18.7031 9.61181 18.985 9.2905 19.0396 9.1987C19.1305 9.02428 19.1214 9.02428 18.6577 9.18034C17.8847 9.45575 17.7756 9.41903 18.1575 9.00592C18.4394 8.71215 18.7759 8.1797 18.7759 8.02364C18.7759 7.9961 18.6395 8.042 18.4849 8.12462C18.3212 8.21642 17.9575 8.35412 17.6847 8.43675L17.1936 8.59281L16.7481 8.28986C16.5026 8.12462 16.157 7.94102 15.9751 7.88594C15.5114 7.75741 14.8021 7.77577 14.3838 7.92266C13.2472 8.33576 12.5288 9.40067 12.6107 10.5666Z" fill="white"/>
</svg>
