<svg width="26" height="26" viewBox="0 0 26 26" fill="none" xmlns="http://www.w3.org/2000/svg">
<path d="M13 26C20.1797 26 26 20.1797 26 13C26 5.8203 20.1797 0 13 0C5.8203 0 0 5.8203 0 13C0 20.1797 5.8203 26 13 26Z" fill="#BDBDBD"/>
<path fill-rule="evenodd" clip-rule="evenodd" d="M13.4285 20.2326H13.4253C12.1315 20.2322 10.8603 19.9076 9.7312 19.2917L5.6333 20.3667L6.72997 16.361C6.05349 15.1886 5.69753 13.8588 5.69811 12.4964C5.69981 8.23425 9.16758 4.76666 13.4284 4.76666C15.4963 4.76756 17.4372 5.57259 18.8967 7.03376C20.3561 8.49486 21.1594 10.437 21.1586 12.5025C21.1569 16.7636 17.6905 20.2309 13.4285 20.2326ZM9.92106 17.8923L10.1557 18.0315C11.1422 18.6169 12.2729 18.9267 13.4259 18.9271H13.4285C16.9698 18.9271 19.852 16.0448 19.8534 12.502C19.8541 10.7852 19.1864 9.171 17.9734 7.95653C16.7603 6.74206 15.1471 6.07291 13.431 6.07232C9.88697 6.07232 7.00468 8.95435 7.00327 12.4968C7.00277 13.7109 7.34246 14.8932 7.98562 15.9161L8.13838 16.1592L7.48931 18.5302L9.92106 17.8923ZM17.0584 14.1668C17.1931 14.2319 17.284 14.2758 17.3229 14.3407C17.3712 14.4212 17.3712 14.808 17.2103 15.2592C17.0493 15.7104 16.2776 16.1222 15.9065 16.1776C15.5737 16.2273 15.1526 16.2481 14.6899 16.101C14.4094 16.012 14.0496 15.8932 13.5888 15.6942C11.7781 14.9123 10.5544 13.1573 10.3231 12.8256C10.3069 12.8024 10.2955 12.7861 10.2892 12.7777L10.2877 12.7756C10.1854 12.6392 9.50054 11.7254 9.50054 10.7796C9.50054 9.88988 9.93758 9.42353 10.1387 9.20888C10.1525 9.19417 10.1652 9.18065 10.1766 9.16825C10.3536 8.97487 10.5629 8.92653 10.6916 8.92653C10.8204 8.92653 10.9493 8.92772 11.0618 8.93337C11.0757 8.93407 11.0901 8.93398 11.1051 8.9339C11.2176 8.93324 11.358 8.93241 11.4964 9.26493C11.5497 9.3929 11.6276 9.5826 11.7098 9.78269C11.876 10.1873 12.0596 10.6344 12.0919 10.6991C12.1402 10.7958 12.1724 10.9085 12.108 11.0375C12.0984 11.0568 12.0894 11.0751 12.0809 11.0925C12.0325 11.1913 11.997 11.2639 11.9149 11.3597C11.8826 11.3974 11.8492 11.438 11.8159 11.4786C11.7494 11.5596 11.683 11.6405 11.6251 11.6981C11.5284 11.7944 11.4278 11.8989 11.5405 12.0923C11.6531 12.2857 12.0408 12.9182 12.615 13.4303C13.2322 13.9809 13.7687 14.2136 14.0406 14.3315C14.0937 14.3546 14.1367 14.3732 14.1683 14.389C14.3614 14.4857 14.474 14.4696 14.5867 14.3407C14.6994 14.2118 15.0695 13.7767 15.1983 13.5833C15.327 13.39 15.4559 13.4222 15.6329 13.4867C15.81 13.5512 16.7596 14.0184 16.9527 14.1151C16.9904 14.1339 17.0257 14.151 17.0584 14.1668Z" fill="#FDFDFD"/>
</svg>
