<svg width="70" height="64" viewBox="0 0 70 64" fill="none" xmlns="http://www.w3.org/2000/svg">
<path d="M30.1732 35.2421V35.7029H33.2603V36.901H30.085C29.9674 37.9915 29.6881 38.8362 29.2471 39.4353C28.8208 40.0189 28.1739 40.4413 27.3066 40.7024C26.4393 40.9482 25.2632 41.071 23.7785 41.071V43.2367C23.7785 45.5406 24.7487 46.6926 26.6892 46.6926C27.63 46.6926 28.3356 46.4084 28.8061 45.8401C29.2765 45.2718 29.5117 44.4578 29.5117 43.398H30.945C30.9303 44.9032 30.5554 46.0475 29.8204 46.8308C29.0854 47.5988 28.0343 47.9828 26.6671 47.9828C25.2412 47.9828 24.1607 47.5681 23.4256 46.7386C22.6906 45.8939 22.3231 44.7266 22.3231 43.2367V39.9191C24.0431 39.9191 25.3147 39.85 26.1379 39.7117C26.9758 39.5735 27.5786 39.297 27.9461 38.8823C28.3283 38.4676 28.5635 37.8072 28.6517 36.901H21.2646V35.7029H28.7179V35.2191V32.8461H21.2646V31.625H33.2603V32.8461H30.1732V35.2421Z" fill="url(#paint0_linear_169_643)"/>
<path d="M3.11689 59.6459H47.4138C47.9945 62.4756 54.6056 63.25 58.5811 63.25C62.7503 63.25 69.7931 62.4011 69.7931 59.2289V50.8442V42.4596V34.06C69.7931 30.8878 62.7503 30.0389 58.5811 30.0389C54.6949 30.0389 48.2923 30.7836 47.4585 33.4494C46.714 31.4686 45.8653 29.6517 44.9273 28.0135C43.0958 24.7966 40.8921 22.2648 38.3907 20.4777C38.7778 20.2543 39.15 19.9713 39.4776 19.6437C40.4454 18.6757 40.9815 17.3949 40.9815 16.0098C40.9815 13.1802 38.6736 10.8867 35.8445 10.8867H34.5789C35.5467 8.99529 37.7653 5.65929 41.9493 3.99129C42.664 3.70832 43.1107 2.99347 43.1107 2.12968C43.1107 0.938251 42.1727 0 40.9815 0H15.5498C14.5671 0 13.7482 0.640393 13.4801 1.59354C13.227 2.51689 13.6142 3.45515 14.4331 3.93172C19.1829 6.6869 21.1781 9.38251 21.9822 10.8867H20.657C19.2871 10.8867 17.9917 11.4228 17.0239 12.3909C16.0561 13.3589 15.52 14.6546 15.52 16.0247C15.52 17.931 16.5623 19.599 18.1109 20.4777C9.08768 26.8965 6.27352 41.3128 5.39502 49.9805L1.2259 53.4803C0.0942792 54.4185 -0.292854 56.0419 0.228287 57.5014C0.719648 58.8268 1.82149 59.6459 3.11689 59.6459ZM49.6622 36.6662C49.6771 36.6811 49.7069 36.6811 49.7217 36.696C49.7813 36.7258 49.826 36.7407 49.8855 36.7705C49.9004 36.7854 49.9302 36.7854 49.9451 36.8003C50.0047 36.8301 50.0642 36.845 50.1387 36.8747C50.1535 36.8747 50.1684 36.8896 50.1833 36.8896C50.2578 36.9194 50.3322 36.9492 50.4216 36.979C50.4365 36.979 50.4513 36.9939 50.4811 36.9939C50.5407 37.0088 50.6002 37.0386 50.6598 37.0534C50.6896 37.0683 50.7045 37.0683 50.7342 37.0832C50.7938 37.0981 50.8683 37.1279 50.9278 37.1428C50.9427 37.1428 50.9576 37.1577 50.9874 37.1577C51.0767 37.1875 51.1512 37.2024 51.2405 37.2322C51.2554 37.2322 51.2703 37.2471 51.2852 37.2471C51.3596 37.262 51.4192 37.2917 51.4936 37.3066C51.5234 37.3066 51.5383 37.3215 51.5681 37.3215C51.6276 37.3364 51.7021 37.3513 51.7616 37.3662C51.7765 37.3662 51.8063 37.3811 51.8212 37.3811C51.9105 37.396 51.9999 37.4258 52.0892 37.4407C52.1041 37.4407 52.119 37.4407 52.119 37.4556C52.1934 37.4705 52.2679 37.4853 52.3572 37.5002C52.387 37.5002 52.4168 37.5151 52.4317 37.5151C52.5061 37.53 52.5657 37.5449 52.6401 37.5598C52.6699 37.5598 52.6848 37.5747 52.7146 37.5747C52.8039 37.5896 52.8933 37.6045 52.9826 37.6194C52.9826 37.6194 52.9826 37.6194 52.9975 37.6194C53.0868 37.6343 53.1762 37.6492 53.2655 37.6641C53.2953 37.6641 53.3251 37.679 53.34 37.679C53.4144 37.6938 53.474 37.6938 53.5484 37.7087C53.5782 37.7087 53.608 37.7236 53.6377 37.7236C53.7271 37.7385 53.8164 37.7534 53.8909 37.7683H53.9058C53.9951 37.7832 54.0844 37.7981 54.1887 37.813C54.2184 37.813 54.2482 37.813 54.2631 37.8279C54.3376 37.8428 54.3971 37.8428 54.4716 37.8577C54.5014 37.8577 54.5311 37.8577 54.5609 37.8726C54.6354 37.8874 54.7247 37.8875 54.7991 37.9023C54.814 37.9023 54.8289 37.9023 54.8438 37.9023C54.9332 37.9172 55.0225 37.9172 55.1267 37.9321C55.1565 37.9321 55.1714 37.9321 55.2012 37.947C55.2756 37.947 55.3352 37.9619 55.4096 37.9619C55.4394 37.9619 55.4692 37.9619 55.499 37.9768C55.5734 37.9768 55.6479 37.9917 55.7074 37.9917C55.7223 37.9917 55.7521 37.9917 55.767 37.9917C55.8563 38.0066 55.9457 38.0066 56.035 38.0066C56.0499 38.0066 56.0797 38.0066 56.0946 38.0066C56.169 38.0066 56.2286 38.0215 56.303 38.0215C56.3328 38.0215 56.3626 38.0215 56.3923 38.0215C56.4668 38.0215 56.5264 38.0364 56.6008 38.0364C56.6306 38.0364 56.6455 38.0364 56.6753 38.0364C56.7646 38.0364 56.8539 38.0513 56.9433 38.0513C56.9582 38.0513 56.973 38.0513 57.0028 38.0513C57.0773 38.0513 57.1368 38.0513 57.2113 38.0662C57.2411 38.0662 57.2708 38.0662 57.3006 38.0662C57.3602 38.0662 57.4346 38.0662 57.4942 38.0662C57.524 38.0662 57.5389 38.0662 57.5686 38.0662C57.658 38.0662 57.7324 38.0662 57.8218 38.0662C57.8366 38.0662 57.8367 38.0662 57.8515 38.0662C57.926 38.0662 58.0004 38.0662 58.0749 38.0662C58.1047 38.0662 58.1196 38.0662 58.1493 38.0662C58.2089 38.0662 58.2685 38.0662 58.328 38.0662C58.3578 38.0662 58.3727 38.0662 58.4025 38.0662C58.4769 38.0662 58.5662 38.0662 58.6407 38.0662C58.7151 38.0662 58.7896 38.0662 58.8789 38.0662C58.9087 38.0662 58.9236 38.0662 58.9534 38.0662C59.0129 38.0662 59.0725 38.0662 59.1321 38.0662C59.1618 38.0662 59.1767 38.0662 59.2065 38.0662C59.281 38.0662 59.3405 38.0662 59.415 38.0662C59.4299 38.0662 59.4447 38.0662 59.4596 38.0662C59.5341 38.0662 59.6234 38.0662 59.7128 38.0662C59.7425 38.0662 59.7574 38.0662 59.7872 38.0662C59.8468 38.0662 59.9063 38.0662 59.9659 38.0662C59.9957 38.0662 60.0254 38.0662 60.0552 38.0662C60.1148 38.0662 60.1892 38.0662 60.2488 38.0513C60.2637 38.0513 60.2935 38.0513 60.3083 38.0513C60.3977 38.0513 60.487 38.0364 60.5615 38.0364C60.5912 38.0364 60.621 38.0364 60.6359 38.0364C60.6955 38.0364 60.7699 38.0215 60.8295 38.0215C60.8593 38.0215 60.889 38.0215 60.9188 38.0215C60.9784 38.0215 61.0528 38.0066 61.1124 38.0066C61.1422 38.0066 61.1571 38.0066 61.1868 38.0066C61.2762 38.0066 61.3655 37.9917 61.4549 37.9917C61.4846 37.9917 61.5144 37.9917 61.5293 37.9917C61.5889 37.9917 61.6633 37.9768 61.7229 37.9768C61.7527 37.9768 61.7973 37.9768 61.8271 37.9619C61.8867 37.9619 61.9462 37.947 62.0058 37.947C62.0356 37.947 62.0653 37.947 62.0951 37.9321C62.1845 37.9172 62.2738 37.9172 62.3631 37.9023C62.3929 37.9023 62.4078 37.9023 62.4376 37.8874C62.512 37.8726 62.5716 37.8726 62.646 37.8577C62.6758 37.8577 62.7205 37.8428 62.7503 37.8428C62.8098 37.8279 62.8694 37.8279 62.9289 37.813C62.9587 37.813 62.9885 37.7981 63.0332 37.7981C63.1225 37.7832 63.2118 37.7683 63.2863 37.7683C63.3012 37.7683 63.331 37.7683 63.3459 37.7534C63.4203 37.7385 63.4947 37.7385 63.5692 37.7236C63.599 37.7236 63.6436 37.7087 63.6734 37.7087C63.733 37.6938 63.7925 37.6938 63.8521 37.679C63.8819 37.679 63.9266 37.6641 63.9563 37.6641C64.0308 37.6492 64.1052 37.6343 64.1797 37.6194C64.1946 37.6194 64.2243 37.6045 64.2392 37.6045C64.3286 37.5896 64.403 37.5747 64.4924 37.5598C64.5221 37.5598 64.5519 37.5449 64.5817 37.5449C64.6413 37.53 64.7008 37.5151 64.7604 37.5151C64.7902 37.5151 64.8199 37.5002 64.8646 37.5002C64.9391 37.4853 64.9986 37.4705 65.0731 37.4556C65.0879 37.4556 65.1177 37.4407 65.1326 37.4407C65.222 37.4258 65.2964 37.396 65.3857 37.3811C65.4155 37.3811 65.4453 37.3662 65.4751 37.3662C65.5346 37.3513 65.5942 37.3364 65.6538 37.3215C65.6835 37.3066 65.7133 37.3066 65.7431 37.2917C65.8027 37.2768 65.8622 37.262 65.9218 37.2471C65.9516 37.2471 65.9664 37.2322 65.9962 37.2322C66.0707 37.2024 66.16 37.1875 66.2345 37.1577C66.2642 37.1577 66.2791 37.1428 66.3089 37.1428C66.3685 37.1279 66.428 37.113 66.4876 37.0832C66.5174 37.0683 66.5471 37.0683 66.5769 37.0534C66.6365 37.0386 66.696 37.0088 66.7556 36.9939C66.7705 36.979 66.8003 36.979 66.8152 36.9641C66.8896 36.9343 66.9641 36.9045 67.0385 36.8747C67.0534 36.8747 67.0683 36.8598 67.0832 36.8598C67.1427 36.8301 67.2023 36.8152 67.2618 36.7854C67.2916 36.7705 67.3065 36.7705 67.3363 36.7556C67.3959 36.7407 67.4405 36.7109 67.5001 36.6811C67.515 36.6662 67.5448 36.6662 67.5596 36.6513C67.6341 36.6216 67.6937 36.5918 67.7681 36.562V42.4298C67.7681 42.4447 67.7532 42.4596 67.7532 42.4596C67.7532 42.4596 67.7532 42.4745 67.7383 42.4745C67.7234 42.4893 67.7234 42.5042 67.7085 42.5042C67.7085 42.5191 67.6937 42.5191 67.6937 42.534C67.6788 42.5489 67.6639 42.5638 67.649 42.5787C67.6341 42.5936 67.6341 42.5936 67.6192 42.6085C67.6043 42.6234 67.5894 42.6383 67.5745 42.6532C67.5596 42.6681 67.5448 42.6681 67.5448 42.683C67.5299 42.6978 67.515 42.6978 67.5001 42.7127C67.4852 42.7276 67.4703 42.7425 67.4554 42.7574C67.4405 42.7723 67.4256 42.7872 67.3959 42.7872C67.381 42.8021 67.3512 42.817 67.3363 42.8319C67.3214 42.8468 67.2916 42.8617 67.2767 42.8617C67.247 42.8766 67.2321 42.8915 67.2023 42.9063C67.1874 42.9212 67.1725 42.9212 67.1427 42.9361C67.113 42.951 67.0832 42.9659 67.0534 42.9808C67.0385 42.9957 67.0087 42.9957 66.9938 43.0106C66.9641 43.0255 66.9194 43.0404 66.8896 43.0553C66.8747 43.0702 66.8598 43.0702 66.8449 43.0851C66.8003 43.1 66.7556 43.1297 66.7109 43.1446C66.696 43.1595 66.6663 43.1595 66.6514 43.1744C66.6067 43.1893 66.562 43.2042 66.5174 43.234C66.5025 43.234 66.4876 43.2489 66.4727 43.2489C66.4131 43.2638 66.3685 43.2936 66.3089 43.3085C66.294 43.3085 66.2791 43.3233 66.2642 43.3233C66.2047 43.3382 66.1451 43.368 66.0856 43.3829C66.0558 43.3978 66.026 43.3978 66.0111 43.4127C65.9516 43.4276 65.9069 43.4425 65.8473 43.4723C65.8175 43.4723 65.8027 43.4872 65.7729 43.4872C65.7133 43.5021 65.6538 43.5318 65.5793 43.5467C65.5495 43.5616 65.5197 43.5616 65.4751 43.5765C65.4155 43.5914 65.356 43.6063 65.2964 43.6212C65.2666 43.6361 65.2368 43.6361 65.2071 43.651C65.1326 43.6659 65.0731 43.6808 64.9986 43.7106C64.9688 43.7106 64.9391 43.7255 64.9093 43.7255C64.8348 43.7403 64.7604 43.7552 64.6859 43.785C64.6561 43.7999 64.6115 43.7999 64.5817 43.8148C64.5072 43.8297 64.4328 43.8446 64.3583 43.8595C64.3137 43.8744 64.2839 43.8744 64.2392 43.8893C64.1648 43.9042 64.0903 43.9191 64.0159 43.934C63.9712 43.9488 63.9266 43.9488 63.8819 43.9637C63.8074 43.9786 63.733 43.9935 63.6585 44.0084C63.6139 44.0233 63.5692 44.0233 63.5245 44.0233C63.4501 44.0382 63.3607 44.0531 63.2863 44.068C63.2416 44.0829 63.1821 44.0829 63.1225 44.0978C63.0481 44.1127 62.9736 44.1276 62.8843 44.1276C62.8247 44.1425 62.7652 44.1425 62.6907 44.1573C62.6163 44.1722 62.5418 44.1722 62.4674 44.1871C62.4227 44.1871 62.378 44.202 62.3334 44.202C62.244 44.2169 62.1398 44.2318 62.0504 44.2318C62.0058 44.2318 61.9611 44.2467 61.9164 44.2467C61.8122 44.2616 61.708 44.2616 61.6186 44.2765C61.5889 44.2765 61.5442 44.2765 61.5144 44.2914C61.3953 44.3063 61.2911 44.3063 61.1719 44.3212C61.1273 44.3212 61.0677 44.3212 61.0231 44.3361C60.9188 44.351 60.8146 44.351 60.6955 44.351C60.6508 44.351 60.6061 44.351 60.5764 44.351C60.4572 44.351 60.3381 44.3658 60.2041 44.3658C59.9361 44.3807 59.6532 44.3807 59.3703 44.3956C59.1321 44.3956 58.8938 44.4105 58.6407 44.4105C58.5662 44.4105 58.4769 44.4105 58.4025 44.4105H58.3876C58.328 44.4105 58.2536 44.4105 58.194 44.4105H58.1791C57.8664 44.4105 57.524 44.3956 57.1368 44.3807L56.7497 44.3658C56.5561 44.351 56.3775 44.351 56.169 44.3212C56.0946 44.3212 56.0201 44.3063 55.9457 44.3063H55.9308C55.7223 44.2914 55.5139 44.2765 55.3203 44.2467C55.3054 44.2467 55.3054 44.2467 55.2905 44.2467C55.2161 44.2467 55.1416 44.2318 55.0821 44.2169H55.0672C54.7396 44.1871 54.412 44.1425 54.1142 44.0978H54.0993C54.0695 44.0978 54.0249 44.0829 53.9951 44.0829C53.9802 44.0829 53.9802 44.0829 53.9653 44.0829C53.6229 44.0233 53.2953 43.9637 52.9826 43.9042H52.9677C52.8635 43.8893 52.7593 43.8595 52.655 43.8446H52.6401C52.5657 43.8297 52.5061 43.8148 52.4317 43.7999C52.2232 43.7552 52.0594 43.7106 51.9254 43.6659L51.717 43.6063C51.583 43.5616 51.4638 43.5318 51.3447 43.4872C51.2852 43.4723 51.2256 43.4425 51.1512 43.4276H51.1363C51.1065 43.4127 51.0618 43.3978 51.032 43.3829C50.9874 43.368 50.9576 43.3531 50.9129 43.3382C50.898 43.3382 50.8831 43.3233 50.8534 43.3233C50.8236 43.3085 50.7789 43.2936 50.7491 43.2787C50.6747 43.2489 50.5854 43.2042 50.5109 43.1744C50.496 43.1744 50.496 43.1595 50.4811 43.1595C50.4365 43.1297 50.3769 43.1148 50.3322 43.0851L50.2876 43.0702C50.228 43.0404 50.1535 42.9957 50.0791 42.9659C50.0642 42.951 50.0344 42.951 50.0047 42.9212C49.9749 42.9063 49.96 42.8915 49.9302 42.8766C49.9153 42.8766 49.9153 42.8617 49.9004 42.8617C49.8855 42.8468 49.8706 42.8468 49.8558 42.8319C49.8409 42.817 49.8111 42.8021 49.7962 42.7872C49.7664 42.7723 49.7515 42.7425 49.7217 42.7276C49.7069 42.7127 49.692 42.6978 49.6622 42.683L49.6473 42.6681C49.6324 42.6532 49.6324 42.6532 49.6175 42.6383L49.6026 42.6234C49.6026 42.6085 49.5877 42.6085 49.5877 42.5936C49.5431 42.5489 49.5133 42.5191 49.5133 42.5042C49.5133 42.5042 49.5133 42.5042 49.5133 42.4893V42.4745V40.1958V36.6067C49.5282 36.5918 49.5877 36.6216 49.6622 36.6662ZM67.7085 44.9467V50.8145C67.7085 50.8293 67.6937 50.8442 67.6937 50.8591C67.6937 50.8591 67.6937 50.874 67.6788 50.874C67.6639 50.8889 67.649 50.9038 67.649 50.9187C67.649 50.9187 67.649 50.9336 67.6341 50.9336C67.6192 50.9485 67.6043 50.9634 67.5745 50.9932C67.5745 50.9932 67.5745 50.9932 67.5596 51.0081C67.5299 51.023 67.515 51.0527 67.4852 51.0676C66.9045 51.5293 65.2368 52.1995 62.4971 52.542C62.4822 52.542 62.4674 52.542 62.4376 52.542C62.3185 52.5569 62.1844 52.5718 62.0504 52.5867C62.0356 52.5867 62.0207 52.5867 62.0058 52.5867C61.8867 52.6016 61.7824 52.6165 61.6633 52.6165C61.6335 52.6165 61.6038 52.6165 61.574 52.6314C61.4251 52.6463 61.2762 52.6612 61.1273 52.6761C61.1273 52.6761 61.1273 52.6761 61.1124 52.6761C60.9635 52.691 60.8146 52.691 60.6657 52.7059C60.6508 52.7059 60.6508 52.7059 60.6359 52.7059C59.9957 52.7505 59.3107 52.7654 58.5662 52.7654C56.8688 52.7654 55.2012 52.6314 53.7569 52.3931C53.6526 52.3782 53.5633 52.3633 53.4591 52.3484C53.4442 52.3484 53.4442 52.3484 53.4293 52.3484C53.1464 52.3037 52.8784 52.2442 52.6401 52.1846C52.6252 52.1846 52.6104 52.1846 52.5955 52.1697C52.521 52.1548 52.4615 52.1399 52.387 52.125H52.3721C52.2232 52.0952 52.0743 52.0506 51.9403 52.0208C51.7914 51.9761 51.6574 51.9463 51.5383 51.9016C51.5234 51.9016 51.5085 51.8867 51.4936 51.8867C51.449 51.8719 51.3894 51.857 51.3447 51.8421C51.3298 51.8421 51.315 51.8272 51.3001 51.8272C51.2554 51.8123 51.2107 51.7974 51.1661 51.7825C51.1512 51.7825 51.1512 51.7825 51.1363 51.7676C51.0916 51.7527 51.0469 51.7378 50.9874 51.7229C50.9725 51.7229 50.9725 51.7229 50.9576 51.708C50.9129 51.6931 50.8683 51.6782 50.8236 51.6634C50.8087 51.6634 50.7938 51.6485 50.7789 51.6485C50.7491 51.6336 50.7045 51.6187 50.6747 51.6038C50.6598 51.6038 50.6598 51.5889 50.6449 51.5889C50.6002 51.574 50.5705 51.5591 50.5407 51.5442C50.5258 51.5442 50.5109 51.5293 50.5109 51.5293C50.4811 51.5144 50.4513 51.4995 50.4216 51.4846C50.4067 51.4846 50.3918 51.4697 50.3769 51.4697C50.3471 51.4549 50.3173 51.44 50.3024 51.4251C50.2876 51.4251 50.2727 51.4102 50.2578 51.4102C50.228 51.3953 50.2131 51.3804 50.1833 51.3804C50.1684 51.3804 50.1535 51.3655 50.1387 51.3655C50.1238 51.3506 50.094 51.3506 50.0791 51.3357C50.0642 51.3208 50.0493 51.3208 50.0344 51.3059C50.0195 51.291 50.0047 51.291 49.9749 51.2761C49.96 51.2761 49.96 51.2612 49.9451 51.2612C49.9302 51.2463 49.9153 51.2464 49.9004 51.2315C49.8855 51.2315 49.8855 51.2166 49.8706 51.2166C49.8558 51.2017 49.8409 51.2017 49.826 51.1868C49.8111 51.1868 49.8111 51.1719 49.7962 51.1719C49.7813 51.157 49.7664 51.157 49.7515 51.1421C49.7366 51.1421 49.7366 51.1272 49.7366 51.1272C49.7217 51.1123 49.7069 51.1123 49.692 51.0974C49.6771 51.0974 49.6771 51.0825 49.6622 51.0825C49.6473 51.0676 49.6473 51.0676 49.6324 51.0527C49.6175 51.0527 49.6175 51.0378 49.6175 51.0378C49.6026 51.023 49.6026 51.023 49.5877 51.0081L49.5729 50.9932C49.558 50.9932 49.558 50.9783 49.5431 50.9783L49.5282 50.9634L49.5133 50.9485C49.5133 50.9485 49.5133 50.9336 49.4984 50.9336L49.4835 50.9187C49.4835 50.9187 49.4835 50.9038 49.4686 50.9038L49.4537 50.8889C49.4537 50.8889 49.4537 50.8889 49.4537 50.874L49.4388 50.8591C49.4388 50.8591 49.4388 50.8442 49.424 50.8442V44.9765C49.4686 44.9913 49.4984 45.0211 49.5431 45.036H49.558C49.6622 45.0807 49.7515 45.1254 49.8409 45.1552C49.8409 45.1552 49.8409 45.1552 49.8558 45.1552C49.96 45.1998 50.0642 45.2296 50.1684 45.2743C50.1684 45.2743 50.1684 45.2743 50.1833 45.2743C50.2429 45.3041 50.3024 45.319 50.362 45.3339C50.4067 45.3488 50.4662 45.3637 50.5258 45.3935C50.5407 45.3935 50.5407 45.3935 50.5556 45.4083C50.5556 45.4083 50.5556 45.4083 50.5705 45.4083C50.7343 45.4679 50.898 45.5126 51.0172 45.5424C51.0618 45.5573 51.1065 45.5722 51.1661 45.5871L51.2405 45.6168C51.4043 45.6615 51.5979 45.7062 51.8212 45.7658C51.9105 45.7807 51.985 45.8105 52.0743 45.8253C52.1934 45.8551 52.3126 45.8849 52.4466 45.8998C52.655 45.9445 52.8933 45.9892 53.1166 46.0338C53.2506 46.0636 53.3846 46.0785 53.5186 46.0934C53.5782 46.1083 53.6229 46.1083 53.6824 46.1232C53.876 46.153 54.0844 46.1828 54.2929 46.2126C54.4269 46.2275 54.5758 46.2423 54.7098 46.2572C54.7991 46.2721 54.9034 46.287 54.9927 46.287C55.2309 46.3168 55.4394 46.3317 55.6479 46.3466C55.7372 46.3615 55.8265 46.3615 55.901 46.3615C56.0946 46.3764 56.303 46.3913 56.4966 46.4062C56.5412 46.4062 56.6008 46.4062 56.6455 46.4211H56.7646C56.7795 46.4211 56.7795 46.4211 56.7944 46.4211H56.9284C57.3304 46.436 57.6878 46.4508 58.0153 46.4508C58.0898 46.4508 58.1642 46.4508 58.2387 46.4508C58.328 46.4508 58.4173 46.4508 58.5067 46.4508C58.5811 46.4508 58.6556 46.4508 58.7449 46.4508C58.7747 46.4508 58.7896 46.4508 58.8194 46.4508C58.8789 46.4508 58.9385 46.4508 58.998 46.4508C59.0278 46.4508 59.0427 46.4508 59.0725 46.4508C59.1469 46.4508 59.2065 46.4508 59.281 46.4508C59.2958 46.4508 59.3107 46.4508 59.3256 46.4508C59.415 46.4508 59.4894 46.4508 59.5788 46.4508C59.6085 46.4508 59.6234 46.4508 59.6532 46.4508C59.7128 46.4508 59.7723 46.4508 59.8468 46.4508C59.8765 46.4508 59.9063 46.4508 59.9361 46.4508C60.0106 46.4508 60.0701 46.4508 60.1446 46.436C60.1594 46.436 60.1892 46.436 60.2041 46.436C60.2935 46.436 60.3828 46.4211 60.4572 46.4211C60.487 46.4211 60.5019 46.4211 60.5317 46.4211C60.5913 46.4211 60.6657 46.4062 60.7253 46.4062C60.755 46.4062 60.7848 46.4062 60.8146 46.4062C60.8742 46.4062 60.9486 46.3913 61.0082 46.3913C61.0379 46.3913 61.0528 46.3913 61.0826 46.3913C61.1719 46.3913 61.2613 46.3764 61.3506 46.3764C61.3804 46.3764 61.3953 46.3764 61.4251 46.3764C61.4846 46.3764 61.5591 46.3615 61.6186 46.3615C61.6484 46.3615 61.6931 46.3615 61.7229 46.3466C61.7824 46.3466 61.842 46.3317 61.9164 46.3317C61.9462 46.3317 61.976 46.3317 62.0058 46.3168C62.0951 46.3019 62.1844 46.3019 62.2738 46.287C62.3036 46.287 62.3185 46.287 62.3482 46.2721C62.4227 46.2572 62.4822 46.2572 62.5567 46.2423C62.5865 46.2423 62.6311 46.2275 62.6609 46.2275C62.7205 46.2126 62.78 46.2126 62.8396 46.1977C62.8694 46.1977 62.8992 46.1828 62.9438 46.1828C63.0332 46.1679 63.1225 46.153 63.2118 46.153C63.2267 46.153 63.2416 46.153 63.2565 46.1381C63.331 46.1232 63.4054 46.1232 63.4799 46.1083C63.5096 46.1083 63.5543 46.0934 63.5841 46.0934C63.6436 46.0785 63.7032 46.0785 63.7628 46.0636C63.7925 46.0636 63.8372 46.0487 63.867 46.0487C63.9414 46.0338 64.0159 46.019 64.0903 46.0041C64.1052 46.0041 64.1201 46.0041 64.1499 45.9892C64.2392 45.9743 64.3137 45.9594 64.403 45.9445C64.4328 45.9445 64.4626 45.9296 64.4924 45.9296C64.5519 45.9147 64.6115 45.8998 64.671 45.8998C64.7008 45.8998 64.7306 45.8849 64.7753 45.8849C64.8497 45.87 64.9093 45.8551 64.9837 45.8402C64.9986 45.8402 65.0284 45.8253 65.0433 45.8253C65.1326 45.8105 65.2071 45.7807 65.2964 45.7658C65.3262 45.7658 65.356 45.7509 65.3857 45.7509C65.4453 45.736 65.5049 45.7211 65.5644 45.7062C65.5942 45.6913 65.624 45.6913 65.6538 45.6764C65.7133 45.6615 65.7729 45.6466 65.8473 45.6317C65.8622 45.6317 65.892 45.6168 65.9069 45.6168C65.9813 45.5871 66.0707 45.5722 66.1451 45.5424C66.1749 45.5424 66.1898 45.5275 66.2196 45.5275C66.2791 45.5126 66.3387 45.4977 66.3982 45.4679C66.428 45.453 66.4578 45.453 66.4876 45.4381C66.5471 45.4232 66.6067 45.3935 66.6663 45.3786C66.6811 45.3637 66.7109 45.3637 66.7258 45.3488C66.8003 45.319 66.8747 45.2892 66.9492 45.2594C66.9641 45.2594 66.9789 45.2445 66.9938 45.2445C67.0534 45.2147 67.113 45.1998 67.1725 45.1701C67.2023 45.1552 67.2172 45.1552 67.247 45.1403C67.3065 45.1254 67.3512 45.0956 67.4107 45.0807C67.4256 45.0658 67.4554 45.0658 67.4703 45.0509C67.5745 45.0211 67.6341 44.9913 67.7085 44.9467C67.7085 44.9616 67.7085 44.9616 67.7085 44.9467ZM67.7085 59.214C67.4554 59.78 64.4328 61.1799 58.5811 61.1799C52.7295 61.1799 49.7069 59.7949 49.4537 59.214V58.6034V53.3314C49.4686 53.3314 49.4686 53.3462 49.4835 53.3462C49.6175 53.4058 49.7366 53.4654 49.8706 53.525C49.8855 53.5399 49.9153 53.5399 49.9302 53.5547C50.0642 53.6143 50.1982 53.659 50.3471 53.7186C50.362 53.7186 50.3918 53.7335 50.4067 53.7335C50.5556 53.7781 50.6896 53.8377 50.8385 53.8824C50.8534 53.8824 50.8683 53.8973 50.898 53.8973C51.0469 53.942 51.1958 53.9866 51.3596 54.0313C51.3745 54.0313 51.3894 54.0462 51.4043 54.0462C51.5532 54.0909 51.717 54.1356 51.8808 54.1653C51.8956 54.1653 51.9105 54.1654 51.9254 54.1802C52.0892 54.2249 52.253 54.2547 52.4019 54.2845C52.4168 54.2845 52.4168 54.2845 52.4317 54.2845C52.5955 54.3143 52.7593 54.359 52.923 54.3887H52.9379C53.1017 54.4185 53.2655 54.4483 53.4293 54.4781C54.9927 54.7313 56.7795 54.8802 58.5811 54.8802C58.6556 54.8802 58.73 54.8802 58.8194 54.8802C58.8492 54.8802 58.864 54.8802 58.8938 54.8802C58.9534 54.8802 59.0129 54.8802 59.0725 54.8802C59.1023 54.8802 59.1172 54.8802 59.1469 54.8802C59.2214 54.8802 59.281 54.8802 59.3554 54.8802C59.3703 54.8802 59.3852 54.8802 59.4001 54.8802C59.4745 54.8802 59.5639 54.8802 59.6532 54.8802C59.683 54.8802 59.6979 54.8802 59.7276 54.8802C59.7872 54.8802 59.8468 54.8802 59.9063 54.8802C59.9361 54.8802 59.9659 54.8802 59.9957 54.8802C60.0552 54.8802 60.1297 54.8802 60.1892 54.8653C60.2041 54.8653 60.2339 54.8653 60.2488 54.8653C60.3381 54.8653 60.4275 54.8504 60.5019 54.8504C60.5317 54.8504 60.5615 54.8504 60.5764 54.8504C60.6359 54.8504 60.7104 54.8355 60.7699 54.8355C60.7997 54.8355 60.8295 54.8355 60.8593 54.8355C60.9188 54.8355 60.9933 54.8206 61.0528 54.8206C61.0826 54.8206 61.0975 54.8206 61.1273 54.8206C61.2166 54.8206 61.306 54.8057 61.3953 54.8057C61.4251 54.8057 61.4549 54.8057 61.4697 54.8057C61.5293 54.8057 61.6038 54.7909 61.6633 54.7909C61.6931 54.7909 61.7378 54.7909 61.7675 54.776C61.8271 54.776 61.8867 54.7611 61.9462 54.7611C61.976 54.7611 62.0058 54.7611 62.0356 54.7462C62.1249 54.7313 62.2142 54.7313 62.3036 54.7164C62.3333 54.7164 62.3482 54.7164 62.378 54.7015C62.4525 54.6866 62.512 54.6866 62.5865 54.6717C62.6163 54.6717 62.6609 54.6568 62.6907 54.6568C62.7503 54.6419 62.8098 54.6419 62.8694 54.627C62.8992 54.627 62.9289 54.6121 62.9736 54.6121C63.0629 54.5972 63.1523 54.5824 63.2267 54.5824C63.2416 54.5824 63.2714 54.5824 63.2863 54.5675C63.3607 54.5526 63.4352 54.5526 63.5096 54.5377C63.5394 54.5377 63.5841 54.5228 63.6139 54.5228C63.6734 54.5079 63.733 54.5079 63.7925 54.493C63.8223 54.493 63.867 54.4781 63.8968 54.4781C63.9712 54.4632 64.0457 54.4483 64.1201 54.4334C64.135 54.4334 64.1648 54.4185 64.1797 54.4185C64.269 54.4036 64.3435 54.3887 64.4328 54.3739C64.4626 54.3739 64.4924 54.359 64.5221 54.359C64.5817 54.3441 64.6413 54.3292 64.7008 54.3292C64.7306 54.3292 64.7604 54.3143 64.805 54.3143C64.8795 54.2994 64.9391 54.2845 65.0135 54.2696C65.0284 54.2696 65.0582 54.2547 65.0731 54.2547C65.1624 54.2398 65.2368 54.21 65.3262 54.1951C65.356 54.1951 65.3857 54.1802 65.4155 54.1802C65.4751 54.1654 65.5346 54.1505 65.5942 54.1356C65.624 54.1207 65.6538 54.1207 65.6835 54.1058C65.7431 54.0909 65.8027 54.076 65.8622 54.0611C65.892 54.0611 65.9069 54.0462 65.9367 54.0462C66.0111 54.0164 66.1005 54.0015 66.1749 53.9717C66.2047 53.9717 66.2196 53.9569 66.2493 53.9569C66.3089 53.942 66.3685 53.9271 66.428 53.8973C66.4578 53.8824 66.4876 53.8824 66.5174 53.8675C66.5769 53.8526 66.6365 53.8228 66.696 53.8079C66.7109 53.793 66.7407 53.793 66.7556 53.7781C66.83 53.7484 66.9045 53.7186 66.9789 53.6888C66.9938 53.6888 67.0087 53.6739 67.0236 53.6739C67.0832 53.6441 67.1427 53.6292 67.2023 53.5994C67.2321 53.5845 67.247 53.5845 67.2767 53.5696C67.3363 53.5547 67.381 53.525 67.4405 53.4952C67.4554 53.4803 67.4852 53.4803 67.5001 53.4654C67.5745 53.4356 67.6341 53.4058 67.7085 53.376V59.214V59.214ZM58.5811 32.1239C64.3584 32.1239 67.3661 33.4792 67.6937 34.06C67.6937 34.06 67.6937 34.0749 67.6788 34.0749C67.6788 34.0898 67.6639 34.0898 67.6639 34.1047C67.6639 34.1196 67.649 34.1196 67.6341 34.1344C67.6192 34.1493 67.6192 34.1493 67.6043 34.1642C67.5894 34.1791 67.5894 34.1791 67.5745 34.194C67.5596 34.2089 67.5448 34.2089 67.5448 34.2238C67.5299 34.2387 67.515 34.2387 67.5001 34.2536C67.4852 34.2685 67.4703 34.2834 67.4554 34.2834C67.4405 34.2983 67.4256 34.3132 67.4107 34.3132C67.3959 34.3281 67.381 34.3429 67.3512 34.3429C67.3363 34.3578 67.3214 34.3727 67.2916 34.3727C67.2767 34.3876 67.247 34.4025 67.2321 34.4174C67.2172 34.4323 67.1874 34.4472 67.1725 34.4472C67.1427 34.4621 67.1278 34.477 67.0981 34.4919C67.0683 34.5068 67.0534 34.5217 67.0236 34.5366C66.9938 34.5514 66.9789 34.5663 66.9492 34.5812C66.9194 34.5961 66.9045 34.611 66.8747 34.6259C66.8449 34.6408 66.8152 34.6557 66.7854 34.6706C66.7556 34.6855 66.7258 34.7004 66.696 34.7153C66.6663 34.7302 66.6365 34.7451 66.6067 34.7599C66.5769 34.7748 66.5471 34.7897 66.5174 34.8046C66.4876 34.8195 66.4429 34.8344 66.4131 34.8493C66.3834 34.8642 66.3387 34.8791 66.3089 34.894C66.2791 34.9089 66.2345 34.9238 66.2047 34.9387C66.1749 34.9536 66.1302 34.9684 66.1005 34.9833C66.0558 34.9982 66.026 35.0131 65.9813 35.028C65.9367 35.0429 65.9069 35.0578 65.8622 35.0727C65.8175 35.0876 65.7729 35.1025 65.7431 35.1174C65.6984 35.1323 65.6538 35.1472 65.624 35.1621C65.5793 35.1769 65.5346 35.1918 65.49 35.2067C65.4453 35.2216 65.4006 35.2365 65.356 35.2514C65.3113 35.2663 65.2666 35.2812 65.2071 35.2961C65.1624 35.311 65.1177 35.3259 65.0582 35.3408C65.0135 35.3557 64.9539 35.3706 64.9093 35.3854C64.8646 35.4003 64.805 35.4152 64.7604 35.4301C64.7157 35.445 64.6561 35.4599 64.6115 35.4599C64.5519 35.4748 64.5072 35.4897 64.4477 35.4897C64.3881 35.5046 64.3435 35.5195 64.2839 35.5195C64.2243 35.5344 64.1648 35.5493 64.1201 35.5493C64.0606 35.5642 64.001 35.5791 63.9414 35.5791C63.8819 35.5939 63.8223 35.5939 63.7628 35.6088C63.7032 35.6237 63.6436 35.6237 63.5841 35.6386C63.5245 35.6535 63.465 35.6535 63.3905 35.6684C63.331 35.6833 63.2714 35.6833 63.2118 35.6982C63.1523 35.7131 63.0778 35.7131 63.0034 35.728C62.9438 35.7429 62.8843 35.7429 62.8098 35.7578C62.7354 35.7727 62.6758 35.7727 62.6014 35.7876C62.5418 35.8024 62.4674 35.8024 62.4078 35.8173C62.3334 35.8322 62.2589 35.8322 62.1845 35.8471C62.11 35.862 62.0504 35.862 61.976 35.8769C61.9015 35.8918 61.8271 35.8918 61.7378 35.9067C61.6633 35.9067 61.6038 35.9216 61.5293 35.9216C61.4549 35.9365 61.3655 35.9365 61.2762 35.9365C61.2017 35.9365 61.1422 35.9514 61.0677 35.9514C60.9784 35.9514 60.889 35.9663 60.7997 35.9663C60.7253 35.9663 60.6657 35.9812 60.5913 35.9812C60.5019 35.9812 60.4126 35.9961 60.3232 35.9961C60.2488 35.9961 60.1892 36.0109 60.1148 36.0109C60.0254 36.0109 59.9212 36.0258 59.817 36.0258C59.7425 36.0258 59.683 36.0258 59.6085 36.0407C59.4894 36.0407 59.3852 36.0407 59.2661 36.0556C59.2065 36.0556 59.1469 36.0556 59.0874 36.0556C58.9087 36.0556 58.73 36.0556 58.5514 36.0556C58.3727 36.0556 58.194 36.0556 58.0153 36.0556C57.9558 36.0556 57.8962 36.0556 57.8367 36.0556C57.7175 36.0556 57.5984 36.0556 57.4942 36.0407C57.4197 36.0407 57.3602 36.0407 57.2857 36.0258C57.1815 36.0258 57.0922 36.0258 56.9879 36.0109C56.9135 36.0109 56.839 35.9961 56.7646 35.9961C56.6752 35.9961 56.5859 35.9812 56.4966 35.9812C56.4221 35.9812 56.3477 35.9663 56.2881 35.9663C56.1988 35.9663 56.1094 35.9514 56.035 35.9514C55.9605 35.9514 55.901 35.9365 55.8265 35.9365C55.7372 35.9365 55.6627 35.9216 55.5734 35.9216C55.499 35.9216 55.4394 35.9067 55.365 35.9067C55.2905 35.8918 55.2012 35.8918 55.1267 35.8769C55.0523 35.8769 54.9927 35.862 54.9332 35.8471C54.8587 35.8322 54.7843 35.8322 54.7098 35.8173C54.6502 35.8024 54.5758 35.8024 54.5162 35.7876C54.4418 35.7727 54.3673 35.7727 54.3078 35.7578C54.2482 35.7429 54.1887 35.7429 54.1291 35.728C54.0547 35.7131 53.9951 35.7131 53.9207 35.6982C53.8611 35.6833 53.8015 35.6833 53.742 35.6684C53.6824 35.6535 53.608 35.6535 53.5484 35.6386C53.4889 35.6237 53.4293 35.6237 53.3846 35.6088C53.3251 35.5939 53.2655 35.5791 53.1911 35.5791C53.1315 35.5642 53.0868 35.5642 53.0273 35.5493C52.9677 35.5344 52.9082 35.5195 52.8486 35.5195C52.789 35.5046 52.7444 35.4897 52.6848 35.4897C52.6252 35.4748 52.5657 35.4599 52.521 35.445C52.4763 35.4301 52.4168 35.4152 52.3721 35.4152C52.3126 35.4003 52.2679 35.3854 52.2083 35.3706C52.1637 35.3557 52.119 35.3408 52.0594 35.3408C52.0148 35.3259 51.9552 35.311 51.9105 35.2961C51.8659 35.2812 51.8212 35.2663 51.7765 35.2514C51.7319 35.2365 51.6872 35.2216 51.6276 35.2067C51.583 35.1918 51.5383 35.1769 51.4936 35.1621C51.449 35.1472 51.4043 35.1323 51.3596 35.1174C51.3149 35.1025 51.2852 35.0876 51.2405 35.0727C51.1958 35.0578 51.1512 35.0429 51.1214 35.028C51.0767 35.0131 51.0469 34.9982 51.0023 34.9833C50.9576 34.9684 50.9278 34.9536 50.8831 34.9387C50.8534 34.9238 50.8087 34.9089 50.7789 34.894C50.7491 34.8791 50.7045 34.8642 50.6747 34.8493C50.6449 34.8344 50.6151 34.8195 50.5854 34.8046C50.5556 34.7897 50.5109 34.7748 50.4811 34.7599C50.4513 34.7451 50.4216 34.7302 50.3918 34.7153C50.362 34.7004 50.3322 34.6855 50.3024 34.6706C50.2727 34.6557 50.2429 34.6408 50.228 34.6259C50.1982 34.611 50.1684 34.5961 50.1387 34.5812C50.1089 34.5663 50.094 34.5514 50.0642 34.5366C50.0344 34.5217 50.0195 34.5068 49.9898 34.4919C49.96 34.477 49.9451 34.4621 49.9302 34.4621C49.9004 34.4472 49.8855 34.4323 49.8706 34.4174C49.8558 34.4025 49.826 34.3876 49.8111 34.3876C49.7962 34.3727 49.7664 34.3578 49.7515 34.3429C49.7366 34.3281 49.7217 34.3132 49.7069 34.3132C49.692 34.2983 49.6771 34.2834 49.6622 34.2834C49.6473 34.2685 49.6324 34.2685 49.6175 34.2536C49.6026 34.2387 49.5877 34.2238 49.5729 34.2238C49.558 34.2089 49.5431 34.2089 49.5431 34.194C49.5282 34.1791 49.5133 34.1642 49.5133 34.1642C49.4984 34.1493 49.4984 34.1493 49.4835 34.1344C49.4686 34.1196 49.4686 34.1196 49.4537 34.1047C49.4537 34.0898 49.4388 34.0898 49.4388 34.0749C49.4388 34.0749 49.4388 34.06 49.424 34.06C49.7962 33.4792 52.8039 32.1239 58.5811 32.1239ZM15.4903 2.14457C15.4903 2.12968 15.5051 2.09989 15.52 2.085C15.52 2.085 15.52 2.085 15.5349 2.085H40.9815C40.9964 2.085 41.0113 2.085 41.0113 2.085C41.0113 2.085 41.0261 2.11479 41.0261 2.12968C35.5169 4.3785 33.0601 9.08465 32.2859 10.9016H24.2901C23.6647 9.30804 21.6397 5.71886 15.4903 2.14457ZM18.5129 13.8802C19.0936 13.2993 19.8529 12.9866 20.6719 12.9866H23.5307H33.0006H35.8594C37.5419 12.9866 38.9118 14.3567 38.9118 16.0247C38.9118 16.8438 38.5991 17.6034 38.0184 18.1693C37.4377 18.7501 36.6783 19.0629 35.8594 19.0629H35.7998H20.7166H20.657C18.9745 19.0629 17.6046 17.6927 17.6046 16.0247C17.6195 15.2205 17.9471 14.461 18.5129 13.8802ZM2.58086 55.0887L7.07756 51.3059C7.28602 51.1272 7.42003 50.874 7.4498 50.606C7.85183 46.3913 8.78988 40.1661 10.9638 34.3429C13.3759 27.8646 16.7559 23.4265 20.9846 21.1479H35.5467C42.3513 24.8115 45.7313 33.5089 47.3692 40.2554V42.4298V50.8442V57.5609H3.11689C2.53619 57.5609 2.28307 57.0248 2.19373 56.8014C2.01505 56.2652 2.05972 55.5355 2.58086 55.0887Z" fill="url(#paint1_linear_169_643)"/>
<defs>
<linearGradient id="paint0_linear_169_643" x1="22.5713" y1="41.2154" x2="32.1187" y2="39.157" gradientUnits="userSpaceOnUse">
<stop stop-color="#B3721D"/>
<stop offset="0.0625" stop-color="#B3721D"/>
<stop offset="0.09375" stop-color="#B3721D"/>
<stop offset="0.109375" stop-color="#B3721D"/>
<stop offset="0.113281" stop-color="#B3731E"/>
<stop offset="0.117188" stop-color="#B4741E"/>
<stop offset="0.121094" stop-color="#B5751E"/>
<stop offset="0.125" stop-color="#B6761F"/>
<stop offset="0.128906" stop-color="#B6771F"/>
<stop offset="0.132812" stop-color="#B77820"/>
<stop offset="0.136719" stop-color="#B87920"/>
<stop offset="0.140625" stop-color="#B97A21"/>
<stop offset="0.144531" stop-color="#B97B21"/>
<stop offset="0.148438" stop-color="#BA7C22"/>
<stop offset="0.152344" stop-color="#BB7D22"/>
<stop offset="0.15625" stop-color="#BC7E22"/>
<stop offset="0.160156" stop-color="#BC7F23"/>
<stop offset="0.164062" stop-color="#BD8024"/>
<stop offset="0.167969" stop-color="#BE8124"/>
<stop offset="0.171875" stop-color="#BE8224"/>
<stop offset="0.175781" stop-color="#BE8325"/>
<stop offset="0.179688" stop-color="#BF8426"/>
<stop offset="0.183594" stop-color="#C08526"/>
<stop offset="0.1875" stop-color="#C18627"/>
<stop offset="0.191406" stop-color="#C18727"/>
<stop offset="0.195312" stop-color="#C18928"/>
<stop offset="0.199219" stop-color="#C28929"/>
<stop offset="0.203125" stop-color="#C38A2A"/>
<stop offset="0.207031" stop-color="#C38B2A"/>
<stop offset="0.210938" stop-color="#C48C2B"/>
<stop offset="0.214844" stop-color="#C48D2C"/>
<stop offset="0.21875" stop-color="#C58E2D"/>
<stop offset="0.222656" stop-color="#C68F2D"/>
<stop offset="0.226562" stop-color="#C6902D"/>
<stop offset="0.230469" stop-color="#C7912E"/>
<stop offset="0.234375" stop-color="#C8912F"/>
<stop offset="0.238281" stop-color="#C8922F"/>
<stop offset="0.242188" stop-color="#C99330"/>
<stop offset="0.246094" stop-color="#C99430"/>
<stop offset="0.25" stop-color="#CA9531"/>
<stop offset="0.253906" stop-color="#CB9632"/>
<stop offset="0.257812" stop-color="#CD9832"/>
<stop offset="0.261719" stop-color="#CD9833"/>
<stop offset="0.265625" stop-color="#CE9934"/>
<stop offset="0.269531" stop-color="#CF9A35"/>
<stop offset="0.273438" stop-color="#CF9B35"/>
<stop offset="0.277344" stop-color="#D09C36"/>
<stop offset="0.28125" stop-color="#D19D36"/>
<stop offset="0.285156" stop-color="#D19E37"/>
<stop offset="0.289062" stop-color="#D29F37"/>
<stop offset="0.292969" stop-color="#D2A038"/>
<stop offset="0.296875" stop-color="#D3A039"/>
<stop offset="0.300781" stop-color="#D3A139"/>
<stop offset="0.304688" stop-color="#D3A239"/>
<stop offset="0.308594" stop-color="#D4A33A"/>
<stop offset="0.3125" stop-color="#D4A43B"/>
<stop offset="0.316406" stop-color="#D5A53B"/>
<stop offset="0.320312" stop-color="#D6A63C"/>
<stop offset="0.324219" stop-color="#D7A73C"/>
<stop offset="0.328125" stop-color="#D8A83D"/>
<stop offset="0.332031" stop-color="#D8A93D"/>
<stop offset="0.335938" stop-color="#D9AA3E"/>
<stop offset="0.339844" stop-color="#DAAB3E"/>
<stop offset="0.34375" stop-color="#DBAB3F"/>
<stop offset="0.347656" stop-color="#DBAC3F"/>
<stop offset="0.351562" stop-color="#DBAD3F"/>
<stop offset="0.355469" stop-color="#DCAE40"/>
<stop offset="0.359375" stop-color="#DCAE40"/>
<stop offset="0.363281" stop-color="#DDAF41"/>
<stop offset="0.367188" stop-color="#DDB042"/>
<stop offset="0.371094" stop-color="#DEB142"/>
<stop offset="0.375" stop-color="#DFB243"/>
<stop offset="0.378906" stop-color="#DFB343"/>
<stop offset="0.382812" stop-color="#E0B443"/>
<stop offset="0.386719" stop-color="#E0B444"/>
<stop offset="0.390625" stop-color="#E1B545"/>
<stop offset="0.394531" stop-color="#E2B645"/>
<stop offset="0.398438" stop-color="#E2B746"/>
<stop offset="0.402344" stop-color="#E3B846"/>
<stop offset="0.40625" stop-color="#E3B847"/>
<stop offset="0.410156" stop-color="#E4B947"/>
<stop offset="0.414062" stop-color="#E5BA48"/>
<stop offset="0.417969" stop-color="#E5BB48"/>
<stop offset="0.421875" stop-color="#E5BC48"/>
<stop offset="0.425781" stop-color="#E6BC49"/>
<stop offset="0.429688" stop-color="#E6BD49"/>
<stop offset="0.433594" stop-color="#E7BE4A"/>
<stop offset="0.4375" stop-color="#E7BF4A"/>
<stop offset="0.441406" stop-color="#E8C04B"/>
<stop offset="0.445312" stop-color="#E8C04B"/>
<stop offset="0.449219" stop-color="#E9C14C"/>
<stop offset="0.453125" stop-color="#EAC24C"/>
<stop offset="0.457031" stop-color="#EAC34D"/>
<stop offset="0.460938" stop-color="#EBC44E"/>
<stop offset="0.464844" stop-color="#ECC44E"/>
<stop offset="0.46875" stop-color="#ECC54F"/>
<stop offset="0.472656" stop-color="#EDC650"/>
<stop offset="0.476562" stop-color="#EDC750"/>
<stop offset="0.480469" stop-color="#EEC851"/>
<stop offset="0.484375" stop-color="#EFC951"/>
<stop offset="0.488281" stop-color="#EFC952"/>
<stop offset="0.492188" stop-color="#F0CA52"/>
<stop offset="0.496094" stop-color="#F0CB52"/>
<stop offset="0.5" stop-color="#F0CB53"/>
<stop offset="0.53125" stop-color="#F0CB52"/>
<stop offset="0.535156" stop-color="#F0CA52"/>
<stop offset="0.539063" stop-color="#EFCA52"/>
<stop offset="0.542969" stop-color="#EFC951"/>
<stop offset="0.546875" stop-color="#EEC851"/>
<stop offset="0.550781" stop-color="#EEC750"/>
<stop offset="0.554688" stop-color="#EDC750"/>
<stop offset="0.558594" stop-color="#ECC64F"/>
<stop offset="0.5625" stop-color="#ECC54E"/>
<stop offset="0.566406" stop-color="#EBC44E"/>
<stop offset="0.570312" stop-color="#EAC34D"/>
<stop offset="0.574219" stop-color="#EAC24C"/>
<stop offset="0.578125" stop-color="#E9C14C"/>
<stop offset="0.582031" stop-color="#E9C04B"/>
<stop offset="0.585937" stop-color="#E8C04B"/>
<stop offset="0.589844" stop-color="#E7BF4A"/>
<stop offset="0.59375" stop-color="#E7BE4A"/>
<stop offset="0.597656" stop-color="#E6BD49"/>
<stop offset="0.601563" stop-color="#E6BC49"/>
<stop offset="0.605469" stop-color="#E5BC49"/>
<stop offset="0.609375" stop-color="#E5BB48"/>
<stop offset="0.613281" stop-color="#E5BA48"/>
<stop offset="0.617188" stop-color="#E4B947"/>
<stop offset="0.621094" stop-color="#E3B847"/>
<stop offset="0.625" stop-color="#E3B846"/>
<stop offset="0.628906" stop-color="#E2B746"/>
<stop offset="0.632812" stop-color="#E2B646"/>
<stop offset="0.636719" stop-color="#E1B545"/>
<stop offset="0.640625" stop-color="#E0B444"/>
<stop offset="0.644531" stop-color="#E0B444"/>
<stop offset="0.648437" stop-color="#DFB343"/>
<stop offset="0.652344" stop-color="#DFB243"/>
<stop offset="0.65625" stop-color="#DEB142"/>
<stop offset="0.660156" stop-color="#DEB042"/>
<stop offset="0.664063" stop-color="#DDB041"/>
<stop offset="0.667969" stop-color="#DCAF41"/>
<stop offset="0.671875" stop-color="#DCAE40"/>
<stop offset="0.675781" stop-color="#DCAD40"/>
<stop offset="0.679688" stop-color="#DBAC3F"/>
<stop offset="0.683594" stop-color="#DBAB3F"/>
<stop offset="0.6875" stop-color="#DAAB3E"/>
<stop offset="0.691406" stop-color="#D9AA3E"/>
<stop offset="0.695312" stop-color="#D8A93E"/>
<stop offset="0.699219" stop-color="#D8A83D"/>
<stop offset="0.703125" stop-color="#D7A73C"/>
<stop offset="0.707031" stop-color="#D6A63C"/>
<stop offset="0.710937" stop-color="#D5A53B"/>
<stop offset="0.714844" stop-color="#D5A43B"/>
<stop offset="0.71875" stop-color="#D4A43A"/>
<stop offset="0.722656" stop-color="#D3A33A"/>
<stop offset="0.726563" stop-color="#D3A239"/>
<stop offset="0.730469" stop-color="#D3A139"/>
<stop offset="0.734375" stop-color="#D3A038"/>
<stop offset="0.738281" stop-color="#D29F37"/>
<stop offset="0.742188" stop-color="#D29E37"/>
<stop offset="0.746094" stop-color="#D19E37"/>
<stop offset="0.75" stop-color="#D09D36"/>
<stop offset="0.753906" stop-color="#CF9C35"/>
<stop offset="0.757812" stop-color="#CF9A35"/>
<stop offset="0.761719" stop-color="#CE9934"/>
<stop offset="0.765625" stop-color="#CD9834"/>
<stop offset="0.769531" stop-color="#CD9833"/>
<stop offset="0.773437" stop-color="#CC9732"/>
<stop offset="0.777344" stop-color="#CA9531"/>
<stop offset="0.78125" stop-color="#C99431"/>
<stop offset="0.785156" stop-color="#C99330"/>
<stop offset="0.789063" stop-color="#C9932F"/>
<stop offset="0.792969" stop-color="#C8922F"/>
<stop offset="0.796875" stop-color="#C8912E"/>
<stop offset="0.800781" stop-color="#C7902E"/>
<stop offset="0.804688" stop-color="#C68F2D"/>
<stop offset="0.808594" stop-color="#C58E2C"/>
<stop offset="0.8125" stop-color="#C48D2C"/>
<stop offset="0.816406" stop-color="#C48C2B"/>
<stop offset="0.820312" stop-color="#C48B2A"/>
<stop offset="0.824219" stop-color="#C38B2A"/>
<stop offset="0.828125" stop-color="#C28A29"/>
<stop offset="0.832031" stop-color="#C28928"/>
<stop offset="0.835937" stop-color="#C18828"/>
<stop offset="0.839844" stop-color="#C18727"/>
<stop offset="0.84375" stop-color="#C08526"/>
<stop offset="0.847656" stop-color="#BF8426"/>
<stop offset="0.851563" stop-color="#BF8325"/>
<stop offset="0.855469" stop-color="#BE8225"/>
<stop offset="0.859375" stop-color="#BE8224"/>
<stop offset="0.863281" stop-color="#BD8024"/>
<stop offset="0.867188" stop-color="#BD7F23"/>
<stop offset="0.871094" stop-color="#BC7F23"/>
<stop offset="0.875" stop-color="#BB7E22"/>
<stop offset="0.878906" stop-color="#BA7D22"/>
<stop offset="0.882812" stop-color="#B97B21"/>
<stop offset="0.886719" stop-color="#B97A21"/>
<stop offset="0.890625" stop-color="#B87920"/>
<stop offset="0.894531" stop-color="#B77820"/>
<stop offset="0.898437" stop-color="#B6771F"/>
<stop offset="0.902344" stop-color="#B6761F"/>
<stop offset="0.90625" stop-color="#B5751E"/>
<stop offset="0.910156" stop-color="#B5741E"/>
<stop offset="0.914063" stop-color="#B4731E"/>
<stop offset="0.917969" stop-color="#B3731D"/>
<stop offset="0.921875" stop-color="#B3721D"/>
<stop offset="0.9375" stop-color="#B3721D"/>
<stop offset="1" stop-color="#B3721D"/>
</linearGradient>
<linearGradient id="paint1_linear_169_643" x1="7.60228" y1="37.083" x2="60.1971" y2="20.02" gradientUnits="userSpaceOnUse">
<stop stop-color="#B3721D"/>
<stop offset="0.0625" stop-color="#B3721D"/>
<stop offset="0.09375" stop-color="#B3721D"/>
<stop offset="0.109375" stop-color="#B3721D"/>
<stop offset="0.113281" stop-color="#B3731E"/>
<stop offset="0.117188" stop-color="#B4741E"/>
<stop offset="0.121094" stop-color="#B5751E"/>
<stop offset="0.125" stop-color="#B6761F"/>
<stop offset="0.128906" stop-color="#B6771F"/>
<stop offset="0.132812" stop-color="#B77820"/>
<stop offset="0.136719" stop-color="#B87920"/>
<stop offset="0.140625" stop-color="#B97A21"/>
<stop offset="0.144531" stop-color="#B97B21"/>
<stop offset="0.148438" stop-color="#BA7C22"/>
<stop offset="0.152344" stop-color="#BB7D22"/>
<stop offset="0.15625" stop-color="#BC7E22"/>
<stop offset="0.160156" stop-color="#BC7F23"/>
<stop offset="0.164062" stop-color="#BD8024"/>
<stop offset="0.167969" stop-color="#BE8124"/>
<stop offset="0.171875" stop-color="#BE8224"/>
<stop offset="0.175781" stop-color="#BE8325"/>
<stop offset="0.179688" stop-color="#BF8426"/>
<stop offset="0.183594" stop-color="#C08526"/>
<stop offset="0.1875" stop-color="#C18627"/>
<stop offset="0.191406" stop-color="#C18727"/>
<stop offset="0.195312" stop-color="#C18928"/>
<stop offset="0.199219" stop-color="#C28929"/>
<stop offset="0.203125" stop-color="#C38A2A"/>
<stop offset="0.207031" stop-color="#C38B2A"/>
<stop offset="0.210938" stop-color="#C48C2B"/>
<stop offset="0.214844" stop-color="#C48D2C"/>
<stop offset="0.21875" stop-color="#C58E2D"/>
<stop offset="0.222656" stop-color="#C68F2D"/>
<stop offset="0.226562" stop-color="#C6902D"/>
<stop offset="0.230469" stop-color="#C7912E"/>
<stop offset="0.234375" stop-color="#C8912F"/>
<stop offset="0.238281" stop-color="#C8922F"/>
<stop offset="0.242188" stop-color="#C99330"/>
<stop offset="0.246094" stop-color="#C99430"/>
<stop offset="0.25" stop-color="#CA9531"/>
<stop offset="0.253906" stop-color="#CB9632"/>
<stop offset="0.257812" stop-color="#CD9832"/>
<stop offset="0.261719" stop-color="#CD9833"/>
<stop offset="0.265625" stop-color="#CE9934"/>
<stop offset="0.269531" stop-color="#CF9A35"/>
<stop offset="0.273438" stop-color="#CF9B35"/>
<stop offset="0.277344" stop-color="#D09C36"/>
<stop offset="0.28125" stop-color="#D19D36"/>
<stop offset="0.285156" stop-color="#D19E37"/>
<stop offset="0.289062" stop-color="#D29F37"/>
<stop offset="0.292969" stop-color="#D2A038"/>
<stop offset="0.296875" stop-color="#D3A039"/>
<stop offset="0.300781" stop-color="#D3A139"/>
<stop offset="0.304688" stop-color="#D3A239"/>
<stop offset="0.308594" stop-color="#D4A33A"/>
<stop offset="0.3125" stop-color="#D4A43B"/>
<stop offset="0.316406" stop-color="#D5A53B"/>
<stop offset="0.320312" stop-color="#D6A63C"/>
<stop offset="0.324219" stop-color="#D7A73C"/>
<stop offset="0.328125" stop-color="#D8A83D"/>
<stop offset="0.332031" stop-color="#D8A93D"/>
<stop offset="0.335938" stop-color="#D9AA3E"/>
<stop offset="0.339844" stop-color="#DAAB3E"/>
<stop offset="0.34375" stop-color="#DBAB3F"/>
<stop offset="0.347656" stop-color="#DBAC3F"/>
<stop offset="0.351562" stop-color="#DBAD3F"/>
<stop offset="0.355469" stop-color="#DCAE40"/>
<stop offset="0.359375" stop-color="#DCAE40"/>
<stop offset="0.363281" stop-color="#DDAF41"/>
<stop offset="0.367188" stop-color="#DDB042"/>
<stop offset="0.371094" stop-color="#DEB142"/>
<stop offset="0.375" stop-color="#DFB243"/>
<stop offset="0.378906" stop-color="#DFB343"/>
<stop offset="0.382812" stop-color="#E0B443"/>
<stop offset="0.386719" stop-color="#E0B444"/>
<stop offset="0.390625" stop-color="#E1B545"/>
<stop offset="0.394531" stop-color="#E2B645"/>
<stop offset="0.398438" stop-color="#E2B746"/>
<stop offset="0.402344" stop-color="#E3B846"/>
<stop offset="0.40625" stop-color="#E3B847"/>
<stop offset="0.410156" stop-color="#E4B947"/>
<stop offset="0.414062" stop-color="#E5BA48"/>
<stop offset="0.417969" stop-color="#E5BB48"/>
<stop offset="0.421875" stop-color="#E5BC48"/>
<stop offset="0.425781" stop-color="#E6BC49"/>
<stop offset="0.429688" stop-color="#E6BD49"/>
<stop offset="0.433594" stop-color="#E7BE4A"/>
<stop offset="0.4375" stop-color="#E7BF4A"/>
<stop offset="0.441406" stop-color="#E8C04B"/>
<stop offset="0.445312" stop-color="#E8C04B"/>
<stop offset="0.449219" stop-color="#E9C14C"/>
<stop offset="0.453125" stop-color="#EAC24C"/>
<stop offset="0.457031" stop-color="#EAC34D"/>
<stop offset="0.460938" stop-color="#EBC44E"/>
<stop offset="0.464844" stop-color="#ECC44E"/>
<stop offset="0.46875" stop-color="#ECC54F"/>
<stop offset="0.472656" stop-color="#EDC650"/>
<stop offset="0.476562" stop-color="#EDC750"/>
<stop offset="0.480469" stop-color="#EEC851"/>
<stop offset="0.484375" stop-color="#EFC951"/>
<stop offset="0.488281" stop-color="#EFC952"/>
<stop offset="0.492188" stop-color="#F0CA52"/>
<stop offset="0.496094" stop-color="#F0CB52"/>
<stop offset="0.5" stop-color="#F0CB53"/>
<stop offset="0.53125" stop-color="#F0CB52"/>
<stop offset="0.535156" stop-color="#F0CA52"/>
<stop offset="0.539063" stop-color="#EFCA52"/>
<stop offset="0.542969" stop-color="#EFC951"/>
<stop offset="0.546875" stop-color="#EEC851"/>
<stop offset="0.550781" stop-color="#EEC750"/>
<stop offset="0.554688" stop-color="#EDC750"/>
<stop offset="0.558594" stop-color="#ECC64F"/>
<stop offset="0.5625" stop-color="#ECC54E"/>
<stop offset="0.566406" stop-color="#EBC44E"/>
<stop offset="0.570312" stop-color="#EAC34D"/>
<stop offset="0.574219" stop-color="#EAC24C"/>
<stop offset="0.578125" stop-color="#E9C14C"/>
<stop offset="0.582031" stop-color="#E9C04B"/>
<stop offset="0.585937" stop-color="#E8C04B"/>
<stop offset="0.589844" stop-color="#E7BF4A"/>
<stop offset="0.59375" stop-color="#E7BE4A"/>
<stop offset="0.597656" stop-color="#E6BD49"/>
<stop offset="0.601563" stop-color="#E6BC49"/>
<stop offset="0.605469" stop-color="#E5BC49"/>
<stop offset="0.609375" stop-color="#E5BB48"/>
<stop offset="0.613281" stop-color="#E5BA48"/>
<stop offset="0.617188" stop-color="#E4B947"/>
<stop offset="0.621094" stop-color="#E3B847"/>
<stop offset="0.625" stop-color="#E3B846"/>
<stop offset="0.628906" stop-color="#E2B746"/>
<stop offset="0.632812" stop-color="#E2B646"/>
<stop offset="0.636719" stop-color="#E1B545"/>
<stop offset="0.640625" stop-color="#E0B444"/>
<stop offset="0.644531" stop-color="#E0B444"/>
<stop offset="0.648437" stop-color="#DFB343"/>
<stop offset="0.652344" stop-color="#DFB243"/>
<stop offset="0.65625" stop-color="#DEB142"/>
<stop offset="0.660156" stop-color="#DEB042"/>
<stop offset="0.664063" stop-color="#DDB041"/>
<stop offset="0.667969" stop-color="#DCAF41"/>
<stop offset="0.671875" stop-color="#DCAE40"/>
<stop offset="0.675781" stop-color="#DCAD40"/>
<stop offset="0.679688" stop-color="#DBAC3F"/>
<stop offset="0.683594" stop-color="#DBAB3F"/>
<stop offset="0.6875" stop-color="#DAAB3E"/>
<stop offset="0.691406" stop-color="#D9AA3E"/>
<stop offset="0.695312" stop-color="#D8A93E"/>
<stop offset="0.699219" stop-color="#D8A83D"/>
<stop offset="0.703125" stop-color="#D7A73C"/>
<stop offset="0.707031" stop-color="#D6A63C"/>
<stop offset="0.710937" stop-color="#D5A53B"/>
<stop offset="0.714844" stop-color="#D5A43B"/>
<stop offset="0.71875" stop-color="#D4A43A"/>
<stop offset="0.722656" stop-color="#D3A33A"/>
<stop offset="0.726563" stop-color="#D3A239"/>
<stop offset="0.730469" stop-color="#D3A139"/>
<stop offset="0.734375" stop-color="#D3A038"/>
<stop offset="0.738281" stop-color="#D29F37"/>
<stop offset="0.742188" stop-color="#D29E37"/>
<stop offset="0.746094" stop-color="#D19E37"/>
<stop offset="0.75" stop-color="#D09D36"/>
<stop offset="0.753906" stop-color="#CF9C35"/>
<stop offset="0.757812" stop-color="#CF9A35"/>
<stop offset="0.761719" stop-color="#CE9934"/>
<stop offset="0.765625" stop-color="#CD9834"/>
<stop offset="0.769531" stop-color="#CD9833"/>
<stop offset="0.773437" stop-color="#CC9732"/>
<stop offset="0.777344" stop-color="#CA9531"/>
<stop offset="0.78125" stop-color="#C99431"/>
<stop offset="0.785156" stop-color="#C99330"/>
<stop offset="0.789063" stop-color="#C9932F"/>
<stop offset="0.792969" stop-color="#C8922F"/>
<stop offset="0.796875" stop-color="#C8912E"/>
<stop offset="0.800781" stop-color="#C7902E"/>
<stop offset="0.804688" stop-color="#C68F2D"/>
<stop offset="0.808594" stop-color="#C58E2C"/>
<stop offset="0.8125" stop-color="#C48D2C"/>
<stop offset="0.816406" stop-color="#C48C2B"/>
<stop offset="0.820312" stop-color="#C48B2A"/>
<stop offset="0.824219" stop-color="#C38B2A"/>
<stop offset="0.828125" stop-color="#C28A29"/>
<stop offset="0.832031" stop-color="#C28928"/>
<stop offset="0.835937" stop-color="#C18828"/>
<stop offset="0.839844" stop-color="#C18727"/>
<stop offset="0.84375" stop-color="#C08526"/>
<stop offset="0.847656" stop-color="#BF8426"/>
<stop offset="0.851563" stop-color="#BF8325"/>
<stop offset="0.855469" stop-color="#BE8225"/>
<stop offset="0.859375" stop-color="#BE8224"/>
<stop offset="0.863281" stop-color="#BD8024"/>
<stop offset="0.867188" stop-color="#BD7F23"/>
<stop offset="0.871094" stop-color="#BC7F23"/>
<stop offset="0.875" stop-color="#BB7E22"/>
<stop offset="0.878906" stop-color="#BA7D22"/>
<stop offset="0.882812" stop-color="#B97B21"/>
<stop offset="0.886719" stop-color="#B97A21"/>
<stop offset="0.890625" stop-color="#B87920"/>
<stop offset="0.894531" stop-color="#B77820"/>
<stop offset="0.898437" stop-color="#B6771F"/>
<stop offset="0.902344" stop-color="#B6761F"/>
<stop offset="0.90625" stop-color="#B5751E"/>
<stop offset="0.910156" stop-color="#B5741E"/>
<stop offset="0.914063" stop-color="#B4731E"/>
<stop offset="0.917969" stop-color="#B3731D"/>
<stop offset="0.921875" stop-color="#B3721D"/>
<stop offset="0.9375" stop-color="#B3721D"/>
<stop offset="1" stop-color="#B3721D"/>
</linearGradient>
</defs>
</svg>
